# Blender v2.90.1 OBJ File: 'environment.blend'
# www.blender.org
o Cone_Cone.001
v -0.000000 -1.000000 0.000000
v 1.000000 1.014270 -2.412107
v -1.000000 1.014270 -2.412107
v 1.000000 1.014270 2.412107
v -1.000000 1.014270 2.412107
v 1.000000 1.014270 -0.000000
v 0.714286 1.014270 -2.412107
v 0.428571 1.014270 -2.412107
v 0.142857 1.014270 -2.412107
v -0.142857 1.014270 -2.412107
v -0.428571 1.014270 -2.412107
v -0.714286 1.014270 -2.412107
v 1.000000 1.014270 1.722934
v 1.000000 1.014270 1.033760
v 1.000000 1.014270 0.344587
v 1.000000 1.014270 -0.344587
v 1.000000 1.014270 -1.033760
v 1.000000 1.014270 -1.722934
v -0.714286 1.014270 2.412107
v -0.428571 1.014270 2.412107
v -0.142857 1.014270 2.412107
v 0.142857 1.014270 2.412107
v 0.428571 1.014270 2.412107
v 0.714286 1.014270 2.412107
v -1.000000 1.014270 -1.722934
v -1.000000 1.014270 -1.033760
v -1.000000 1.014270 -0.344587
v -1.000000 1.014270 0.344587
v -1.000000 1.014270 1.033760
v -1.000000 1.014270 1.722934
v -0.714286 1.014270 -0.689173
v -0.428571 1.014270 -0.689173
v -0.142857 1.014270 -0.689173
v 0.142857 1.014270 -0.689173
v 0.428571 1.014270 -0.689173
v 0.714286 1.014270 -0.689173
v 0.714286 1.014270 -1.722934
v 0.714286 1.014270 -1.033760
v 0.714286 1.014270 -0.344587
v 0.714286 1.014270 0.344587
v 0.714286 1.014270 1.033760
v 0.714286 1.014270 1.722934
v 0.428571 1.014270 -1.722934
v 0.428571 1.014270 -1.033760
v 0.428571 1.014270 -0.344587
v 0.428571 1.014270 0.344587
v 0.428571 1.014270 1.033760
v 0.428571 1.014270 1.722934
v 0.142857 1.014270 -1.722934
v 0.142857 1.014270 -1.033760
v 0.142857 1.014270 -0.344587
v 0.142857 1.014270 0.344587
v 0.142857 1.014270 1.033760
v 0.142857 1.014270 1.722934
v -0.142857 1.014270 -1.722934
v -0.142857 1.014270 -1.033760
v -0.142857 1.014270 -0.344587
v -0.142857 1.014270 0.344587
v -0.142857 1.014270 1.033760
v -0.142857 1.014270 1.722934
v -0.428571 1.014270 -1.722934
v -0.428571 1.014270 -1.033760
v -0.428571 1.014270 -0.344587
v -0.428571 1.014270 0.344587
v -0.428571 1.014270 1.033760
v -0.428571 1.014270 1.722934
v -0.714286 1.014270 -1.722934
v -0.714286 1.014270 -1.033760
v -0.714286 1.014270 -0.344587
v -0.714286 1.014270 0.344587
v -0.714286 1.014270 1.033760
v -0.714286 1.014270 1.722934
v 1.000000 1.014270 -0.689173
v 1.000000 1.014270 -1.378347
v -0.714286 1.014270 -2.067520
v -1.000000 1.014270 -1.378347
v -1.000000 1.014270 -0.689173
v 0.714286 1.014270 -1.378347
v 0.428571 1.014270 -1.378347
v 0.142857 1.014270 -1.378347
v -0.142857 1.014270 -1.378347
v -0.428571 1.014270 -1.378347
v -0.714286 1.014270 -1.378347
v -0.428571 1.014270 -2.067520
v -0.142857 1.014270 -2.067520
v 0.142857 1.014270 -2.067520
v 0.428571 1.014270 -2.067520
v 0.714286 1.014270 -2.067520
v -1.000000 1.014270 -2.067520
v 1.000000 1.014270 -2.067520
v -1.000000 1.014270 0.000000
v 0.714286 1.014270 0.000000
v 0.428571 1.014270 0.000000
v 0.142857 1.014270 0.000000
v -0.142857 1.014270 0.000000
v -0.428571 1.014270 0.000000
v -0.714286 1.014270 0.000000
v 1.000000 1.014270 0.689173
v -1.000000 1.014270 0.689173
v 0.714286 1.014270 0.689173
v 0.428571 1.014270 0.689173
v 0.142857 1.014270 0.689173
v -0.142857 1.014270 0.689173
v -0.428571 1.014270 0.689173
v -0.714286 1.014270 0.689173
v 1.000000 1.014270 1.383405
v -1.000000 1.014270 1.383405
v 0.714286 1.014270 1.383405
v 0.428571 1.014270 1.383405
v 0.142857 1.014270 1.383405
v -0.142857 1.014270 1.383405
v -0.428571 1.014270 1.383405
v -0.714286 1.014270 1.383405
v -1.000000 1.014270 2.067520
v 1.000000 1.014270 2.067520
v 0.714286 1.014270 2.067520
v 0.428571 1.014270 2.067520
v 0.142857 1.014270 2.067520
v -0.142857 1.014270 2.067520
v -0.428571 1.014270 2.067520
v -0.714286 1.014270 2.067520
vt 0.238776 0.277231
vt 0.210036 0.298440
vt 0.210036 0.277231
vt 0.005564 0.990331
vt 0.252315 0.808731
vt 0.040814 0.990331
vt 0.066337 0.149975
vt 0.095076 0.171185
vt 0.066337 0.171185
vt 0.066337 0.213603
vt 0.095076 0.192394
vt 0.095076 0.213603
vt 0.066337 0.256022
vt 0.095076 0.277231
vt 0.066337 0.277231
vt 0.238776 0.086347
vt 0.210036 0.107557
vt 0.210036 0.086347
vt 0.152556 0.086347
vt 0.123816 0.107557
vt 0.123816 0.086347
vt 0.095076 0.107557
vt 0.095076 0.086347
vt 0.238776 0.128766
vt 0.210036 0.149975
vt 0.210036 0.128766
vt 0.181296 0.128766
vt 0.152556 0.149975
vt 0.152556 0.128766
vt 0.123816 0.128766
vt 0.095076 0.149975
vt 0.095076 0.128766
vt 0.181296 0.107557
vt 0.181296 0.086347
vt 0.152556 0.107557
vt 0.066337 0.086347
vt 0.037597 0.107557
vt 0.037597 0.086347
vt 0.181296 0.149975
vt 0.123816 0.149975
vt 0.066337 0.128766
vt 0.037597 0.149975
vt 0.037597 0.128766
vt 0.037597 0.298440
vt 0.037597 0.277231
vt 0.123816 0.277231
vt 0.095076 0.298440
vt 0.152556 0.277231
vt 0.123816 0.298440
vt 0.181296 0.277231
vt 0.152556 0.298440
vt 0.181296 0.298440
vt 0.066337 0.022719
vt 0.037597 0.043929
vt 0.037597 0.022719
vt 0.066337 0.065138
vt 0.037597 0.065138
vt 0.066337 0.107557
vt 0.037597 0.171185
vt 0.066337 0.192394
vt 0.037597 0.213603
vt 0.037597 0.192394
vt 0.066337 0.235124
vt 0.037597 0.256022
vt 0.037597 0.235124
vt 0.210036 0.001510
vt 0.181296 0.022719
vt 0.181296 0.001510
vt 0.152556 0.022719
vt 0.152556 0.001510
vt 0.095076 0.043929
vt 0.066337 0.043929
vt 0.095076 0.065138
vt 0.151964 0.806946
vt 0.284161 0.989475
vt 0.002270 0.989475
vt 0.123816 0.022719
vt 0.095076 0.022719
vt 0.123816 0.065138
vt 0.123816 0.192394
vt 0.123816 0.235124
vt 0.095076 0.256022
vt 0.095076 0.235124
vt 0.123816 0.043929
vt 0.152556 0.065138
vt 0.123816 0.171185
vt 0.152556 0.213603
vt 0.123816 0.213603
vt 0.152556 0.235124
vt 0.123816 0.256022
vt 0.152556 0.043929
vt 0.181296 0.065138
vt 0.152556 0.171185
vt 0.152556 0.192394
vt 0.181296 0.213603
vt 0.181296 0.235124
vt 0.152556 0.256022
vt 0.210036 0.022719
vt 0.181296 0.043929
vt 0.210036 0.065138
vt 0.181296 0.171185
vt 0.210036 0.192394
vt 0.181296 0.192394
vt 0.210036 0.235124
vt 0.181296 0.256022
vt 0.238776 0.022719
vt 0.210036 0.043929
vt 0.238776 0.065138
vt 0.238776 0.107557
vt 0.238776 0.149975
vt 0.210036 0.171185
vt 0.238776 0.192394
vt 0.210036 0.213603
vt 0.238776 0.235124
vt 0.210036 0.256022
vt 0.238776 0.043929
vt 0.066337 0.001510
vt 0.238776 0.001510
vt 0.123816 0.001510
vt 0.095076 0.001510
vt 0.037597 0.001510
vt 0.523680 0.990043
vt -0.000131 0.990043
vt 0.261775 0.805190
vt 0.245538 0.990663
vt 0.000491 0.990663
vt 0.128024 0.808631
vt 0.238776 0.171185
vt 0.238776 0.213603
vt 0.066337 0.298440
vt 0.238776 0.256022
vt 0.238776 0.298440
vt 0.076064 0.990331
vt 0.110797 0.990331
vt 0.146564 0.990331
vt 0.181815 0.990331
vt 0.217065 0.990331
vt 0.252315 0.990331
vt 0.287566 0.990331
vt 0.322816 0.990331
vt 0.358066 0.990331
vt 0.393316 0.990331
vt 0.428567 0.990331
vt 0.463817 0.990331
vt 0.499067 0.990331
vn 0.0000 1.0000 0.0000
vn 0.8957 -0.4447 0.0000
vn 0.0000 -0.7676 -0.6410
vn -0.8957 -0.4447 0.0000
vn 0.0000 -0.7676 0.6410
s off
f 114/1/1 19/2/1 121/3/1
f 4/4/2 1/5/2 115/6/2
f 92/7/1 46/8/1 40/9/1
f 41/10/1 101/11/1 47/12/1
f 42/13/1 117/14/1 116/15/1
f 26/16/1 31/17/1 68/18/1
f 56/19/1 34/20/1 50/21/1
f 50/21/1 35/22/1 44/23/1
f 27/24/1 97/25/1 69/26/1
f 63/27/1 95/28/1 57/29/1
f 51/30/1 93/31/1 45/32/1
f 68/18/1 32/33/1 62/34/1
f 62/34/1 33/35/1 56/19/1
f 38/36/1 73/37/1 17/38/1
f 69/26/1 96/39/1 63/27/1
f 57/29/1 94/40/1 51/30/1
f 39/41/1 6/42/1 16/43/1
f 116/15/1 4/44/1 115/45/1
f 39/41/1 93/31/1 92/7/1
f 118/46/1 23/47/1 117/14/1
f 119/48/1 22/49/1 118/46/1
f 120/50/1 21/51/1 119/48/1
f 121/3/1 20/52/1 120/50/1
f 88/53/1 18/54/1 90/55/1
f 78/56/1 17/38/1 74/57/1
f 36/58/1 16/43/1 73/37/1
f 92/7/1 15/59/1 6/42/1
f 100/60/1 14/61/1 98/62/1
f 108/63/1 13/64/1 106/65/1
f 36/58/1 45/32/1 39/41/1
f 12/66/1 84/67/1 11/68/1
f 11/68/1 85/69/1 10/70/1
f 88/53/1 43/71/1 37/72/1
f 78/56/1 43/71/1 79/73/1
f 1/74/3 3/75/3 2/76/3
f 86/77/1 43/71/1 87/78/1
f 80/79/1 44/23/1 79/73/1
f 34/20/1 45/32/1 35/22/1
f 94/40/1 46/8/1 93/31/1
f 102/80/1 47/12/1 101/11/1
f 110/81/1 48/82/1 109/83/1
f 85/69/1 49/84/1 86/77/1
f 81/85/1 50/21/1 80/79/1
f 33/35/1 51/30/1 34/20/1
f 95/28/1 52/86/1 94/40/1
f 102/80/1 59/87/1 53/88/1
f 111/89/1 54/90/1 110/81/1
f 84/67/1 55/91/1 85/69/1
f 82/92/1 56/19/1 81/85/1
f 32/33/1 57/29/1 33/35/1
f 96/39/1 58/93/1 95/28/1
f 103/94/1 65/95/1 59/87/1
f 112/96/1 60/97/1 111/89/1
f 75/98/1 61/99/1 84/67/1
f 83/100/1 62/34/1 82/92/1
f 31/17/1 63/27/1 32/33/1
f 97/25/1 64/101/1 96/39/1
f 105/102/1 65/95/1 104/103/1
f 113/104/1 66/105/1 112/96/1
f 89/106/1 67/107/1 75/98/1
f 76/108/1 68/18/1 83/100/1
f 77/109/1 69/26/1 31/17/1
f 91/110/1 70/111/1 97/25/1
f 99/112/1 71/113/1 105/102/1
f 107/114/1 72/115/1 113/104/1
f 25/116/1 83/100/1 67/107/1
f 67/107/1 82/92/1 61/99/1
f 61/99/1 81/85/1 55/91/1
f 55/91/1 80/79/1 49/84/1
f 49/84/1 79/73/1 43/71/1
f 7/117/1 87/78/1 88/53/1
f 78/56/1 44/23/1 38/36/1
f 3/118/1 75/98/1 12/66/1
f 10/70/1 86/77/1 9/119/1
f 9/119/1 87/78/1 8/120/1
f 38/36/1 35/22/1 36/58/1
f 7/117/1 90/55/1 2/121/1
f 48/82/1 108/63/1 109/83/1
f 37/72/1 74/57/1 18/54/1
f 100/60/1 46/8/1 101/11/1
f 5/122/4 3/123/4 1/124/4
f 4/125/5 5/126/5 1/127/5
f 28/128/1 105/102/1 70/111/1
f 70/111/1 104/103/1 64/101/1
f 64/101/1 103/94/1 58/93/1
f 58/93/1 102/80/1 52/86/1
f 52/86/1 101/11/1 46/8/1
f 40/9/1 98/62/1 15/59/1
f 109/83/1 41/10/1 47/12/1
f 29/129/1 113/104/1 71/113/1
f 71/113/1 112/96/1 65/95/1
f 65/95/1 111/89/1 59/87/1
f 59/87/1 110/81/1 53/88/1
f 53/88/1 109/83/1 47/12/1
f 41/10/1 106/65/1 14/61/1
f 72/115/1 120/50/1 66/105/1
f 66/105/1 119/48/1 60/97/1
f 60/97/1 118/46/1 54/90/1
f 54/90/1 117/14/1 48/82/1
f 42/13/1 115/45/1 13/64/1
f 116/15/1 23/47/1 24/130/1
f 30/131/1 121/3/1 72/115/1
f 114/1/1 5/132/1 19/2/1
f 92/7/1 93/31/1 46/8/1
f 41/10/1 100/60/1 101/11/1
f 42/13/1 48/82/1 117/14/1
f 26/16/1 77/109/1 31/17/1
f 56/19/1 33/35/1 34/20/1
f 50/21/1 34/20/1 35/22/1
f 27/24/1 91/110/1 97/25/1
f 63/27/1 96/39/1 95/28/1
f 51/30/1 94/40/1 93/31/1
f 68/18/1 31/17/1 32/33/1
f 62/34/1 32/33/1 33/35/1
f 38/36/1 36/58/1 73/37/1
f 69/26/1 97/25/1 96/39/1
f 57/29/1 95/28/1 94/40/1
f 39/41/1 92/7/1 6/42/1
f 116/15/1 24/130/1 4/44/1
f 39/41/1 45/32/1 93/31/1
f 118/46/1 22/49/1 23/47/1
f 119/48/1 21/51/1 22/49/1
f 120/50/1 20/52/1 21/51/1
f 121/3/1 19/2/1 20/52/1
f 88/53/1 37/72/1 18/54/1
f 78/56/1 38/36/1 17/38/1
f 36/58/1 39/41/1 16/43/1
f 92/7/1 40/9/1 15/59/1
f 100/60/1 41/10/1 14/61/1
f 108/63/1 42/13/1 13/64/1
f 36/58/1 35/22/1 45/32/1
f 12/66/1 75/98/1 84/67/1
f 11/68/1 84/67/1 85/69/1
f 88/53/1 87/78/1 43/71/1
f 78/56/1 37/72/1 43/71/1
f 86/77/1 49/84/1 43/71/1
f 80/79/1 50/21/1 44/23/1
f 34/20/1 51/30/1 45/32/1
f 94/40/1 52/86/1 46/8/1
f 102/80/1 53/88/1 47/12/1
f 110/81/1 54/90/1 48/82/1
f 85/69/1 55/91/1 49/84/1
f 81/85/1 56/19/1 50/21/1
f 33/35/1 57/29/1 51/30/1
f 95/28/1 58/93/1 52/86/1
f 102/80/1 103/94/1 59/87/1
f 111/89/1 60/97/1 54/90/1
f 84/67/1 61/99/1 55/91/1
f 82/92/1 62/34/1 56/19/1
f 32/33/1 63/27/1 57/29/1
f 96/39/1 64/101/1 58/93/1
f 103/94/1 104/103/1 65/95/1
f 112/96/1 66/105/1 60/97/1
f 75/98/1 67/107/1 61/99/1
f 83/100/1 68/18/1 62/34/1
f 31/17/1 69/26/1 63/27/1
f 97/25/1 70/111/1 64/101/1
f 105/102/1 71/113/1 65/95/1
f 113/104/1 72/115/1 66/105/1
f 89/106/1 25/116/1 67/107/1
f 76/108/1 26/16/1 68/18/1
f 77/109/1 27/24/1 69/26/1
f 91/110/1 28/128/1 70/111/1
f 99/112/1 29/129/1 71/113/1
f 107/114/1 30/131/1 72/115/1
f 25/116/1 76/108/1 83/100/1
f 67/107/1 83/100/1 82/92/1
f 61/99/1 82/92/1 81/85/1
f 55/91/1 81/85/1 80/79/1
f 49/84/1 80/79/1 79/73/1
f 7/117/1 8/120/1 87/78/1
f 78/56/1 79/73/1 44/23/1
f 3/118/1 89/106/1 75/98/1
f 10/70/1 85/69/1 86/77/1
f 9/119/1 86/77/1 87/78/1
f 38/36/1 44/23/1 35/22/1
f 7/117/1 88/53/1 90/55/1
f 48/82/1 42/13/1 108/63/1
f 37/72/1 78/56/1 74/57/1
f 100/60/1 40/9/1 46/8/1
f 28/128/1 99/112/1 105/102/1
f 70/111/1 105/102/1 104/103/1
f 64/101/1 104/103/1 103/94/1
f 58/93/1 103/94/1 102/80/1
f 52/86/1 102/80/1 101/11/1
f 40/9/1 100/60/1 98/62/1
f 109/83/1 108/63/1 41/10/1
f 29/129/1 107/114/1 113/104/1
f 71/113/1 113/104/1 112/96/1
f 65/95/1 112/96/1 111/89/1
f 59/87/1 111/89/1 110/81/1
f 53/88/1 110/81/1 109/83/1
f 41/10/1 108/63/1 106/65/1
f 72/115/1 121/3/1 120/50/1
f 66/105/1 120/50/1 119/48/1
f 60/97/1 119/48/1 118/46/1
f 54/90/1 118/46/1 117/14/1
f 42/13/1 116/15/1 115/45/1
f 116/15/1 117/14/1 23/47/1
f 30/131/1 114/1/1 121/3/1
f 115/6/2 1/5/2 13/133/2
f 106/134/2 13/133/2 1/5/2
f 14/135/2 106/134/2 1/5/2
f 98/136/2 14/135/2 1/5/2
f 15/137/2 98/136/2 1/5/2
f 6/138/2 15/137/2 1/5/2
f 16/139/2 6/138/2 1/5/2
f 73/140/2 16/139/2 1/5/2
f 17/141/2 73/140/2 1/5/2
f 74/142/2 17/141/2 1/5/2
f 18/143/2 74/142/2 1/5/2
f 90/144/2 18/143/2 1/5/2
f 2/145/2 90/144/2 1/5/2
