# Blender v2.90.1 OBJ File: 'environment.blend'
# www.blender.org
mtllib environment.mtl
o Cone_Cone.001
v -0.000000 -1.000000 0.000000
v 1.000000 1.014270 -2.412107
v -1.000000 1.014270 -2.412107
v 1.000000 1.014270 2.412107
v -1.000000 1.014270 2.412107
vt 0.017193 0.001863
vt 0.262478 0.001863
vt 0.017193 0.304038
vt 0.262478 0.304038
vt 0.200000 0.991689
vt 0.567953 0.991689
vt 0.380799 0.811319
vt 0.200000 0.991689
vt 0.000000 0.991689
vt 0.100000 0.810917
vt 0.567953 0.991689
vt 0.200000 0.991689
vt 0.100000 0.811319
vt 0.000000 0.991689
vn 0.0000 1.0000 0.0000
vn 0.8957 -0.4447 0.0000
vn 0.0000 -0.7676 0.6410
vn -0.8957 -0.4447 0.0000
vn 0.0000 -0.7676 -0.6410
usemtl Material.001
s off
f 5/1/1 4/2/1 3/3/1
f 2/4/1 3/3/1 4/2/1
f 2/5/2 4/6/2 1/7/2
f 4/8/3 5/9/3 1/10/3
f 1/7/4 5/11/4 3/12/4
f 1/13/5 3/14/5 2/5/5
