# Blender v2.90.1 OBJ File: 'woodVerticalPlane.blend'
# www.blender.org
mtllib glassVerticalPlane.mtl
o Cube_Cube.001
v -0.481292 2.000000 -0.497738
v -0.481292 -2.000000 0.497738
v -0.481292 -2.000000 -0.497738
v -0.481292 2.000000 0.497738
v 0.481292 -2.000000 0.497738
v 0.481292 2.000000 0.497738
v 0.481292 -2.000000 -0.497738
v 0.481292 2.000000 -0.497738
vt 0.811829 0.275243
vt 0.648778 0.294617
vt 0.648778 0.275243
vt 0.811829 0.294618
vt 0.648778 0.313377
vt 0.811829 0.313377
vt 0.648778 0.330636
vt 0.811829 0.330636
vt 0.648778 0.350805
vt 0.635618 0.330636
vt 0.635618 0.313377
vt 0.824711 0.313377
vt 0.811829 0.350805
vt 0.824711 0.330636
vn 1.0000 0.0000 0.0000
vn 0.0000 0.0000 -1.0000
vn -1.0000 0.0000 0.0000
vn 0.0000 -0.0000 1.0000
vn 0.0000 1.0000 0.0000
vn 0.0000 -1.0000 -0.0000
usemtl None
s 1
f 7/7/4 8/8/4 3/9/4 
f 3/9/4 8/8/4 1/13/4 
