# Blender v2.90.1 OBJ File: 'glassVerticalPlane.blend'
# www.blender.org
mtllib glassVerticalPlane.mtl
o Cube
v 0.495838 -2.007257 -0.488113
v -0.502168 -2.007257 -0.488113
v 0.495838 -2.007257 0.488113
v -0.502168 -2.007257 0.488113
v 0.495838 1.994658 -0.488113
v -0.502168 1.994658 -0.488113
v 0.495838 1.994658 0.488113
v -0.502168 1.994658 0.488113
vt 0.632025 0.300084
vt 0.632025 0.313637
vt 0.489081 0.314370
vt 0.489081 0.300817
vt 0.489081 0.314449
vt 0.631817 0.300084
vt 0.631817 0.313716
vt 0.632066 0.313716
vt 0.632066 0.300084
vt 0.489122 0.300817
vt 0.489122 0.314449
vt 0.632025 0.300162
vt 0.632025 0.313716
vt 0.489081 0.300895
vn 1.0000 -0.0000 0.0000
vn 0.0000 0.0000 1.0000
vn 0.0000 1.0000 0.0000
vn -1.0000 0.0000 0.0000
vn 0.0000 -1.0000 0.0000
vn 0.0000 0.0000 -1.0000
usemtl Material
s off
f 1/1/1 5/2/1 7/3/1 3/4/1
f 4/5/2 3/4/2 7/6/2 8/7/2
f 8/8/3 7/9/3 5/10/3 6/11/3
f 6/12/4 2/13/4 4/5/4 8/14/4
f 2/13/5 1/1/5 3/4/5 4/5/5
f 6/11/6 5/10/6 1/1/6 2/13/6
