# Blender v2.90.1 OBJ File: 'glassVerticalPlane.blend'
# www.blender.org
mtllib glassVerticalPlane.mtl
o Cube
v -0.481292 -2.000000 -0.497738
v -0.481292 2.000000 -0.497738
v -0.481292 -2.000000 0.497738
v -0.481292 2.000000 0.497738
v 0.481292 -2.000000 -0.497738
v 0.481292 2.000000 -0.497738
v 0.481292 -2.000000 0.497738
v 0.481292 2.000000 0.497738
vt 0.811390 0.275243
vt 0.647250 0.294265
vt 0.647250 0.275243
vt 0.811390 0.295324
vt 0.647250 0.311878
vt 0.647250 0.295323
vt 0.811390 0.312936
vt 0.647250 0.331253
vt 0.647250 0.312936
vt 0.811390 0.331253
vt 0.647250 0.350276
vt 0.634306 0.329842
vt 0.634306 0.312936
vt 0.823183 0.314347
vt 0.811390 0.330900
vt 0.811390 0.314347
vt 0.811390 0.293913
vt 0.647250 0.293912
vt 0.811390 0.294618
vt 0.811390 0.312230
vt 0.811390 0.350982
vt 0.647250 0.350982
vt 0.647250 0.312231
vt 0.647250 0.330195
vt 0.633442 0.330195
vt 0.823183 0.331253
vn 1.0000 0.0000 0.0000
vn 0.0000 0.0000 -1.0000
vn -1.0000 0.0000 0.0000
vn 0.0000 0.0000 1.0000
vn 0.0000 1.0000 0.0000
vn 0.0000 -1.0000 0.0000
usemtl None
s off
f 2/1/1 3/2/1 1/3/1
f 4/4/2 7/5/2 3/6/2
f 8/7/3 5/8/3 7/9/3
f 6/10/4 1/11/4 5/8/4
f 7/9/5 1/12/5 3/13/5
f 4/14/6 6/15/6 8/16/6
f 2/1/1 4/17/1 3/18/1
f 4/19/2 8/7/2 7/9/2
f 8/20/3 6/10/3 5/8/3
f 6/10/4 2/21/4 1/22/4
f 7/23/5 5/24/5 1/25/5
f 4/14/6 2/26/6 6/10/6
