# Blender v2.90.1 OBJ File: 'glassBox.blend'
# www.blender.org
mtllib glassBox.mtl
o Cube
v 0.998346 0.998346 -1.007841
v 0.998346 -0.998346 -1.007841
v 0.998346 0.998346 1.001511
v 0.998346 -0.998346 1.001511
v -0.998346 0.998346 -1.007841
v -0.998346 -0.998346 -1.007841
v -0.998346 0.998346 1.001511
v -0.998346 -0.998346 1.001511
v -0.998346 -0.998346 -0.701146
v -0.998346 -0.998346 0.700128
v 0.998346 0.998346 -0.701146
v 0.998346 0.998346 0.700128
v -0.998346 0.998346 0.700128
v -0.998346 0.998346 -0.701146
v 0.998346 -0.998346 0.700128
v 0.998346 -0.998346 -0.701146
v 0.998346 0.698358 -1.007841
v 0.998346 -0.698678 -1.007841
v -0.998346 -0.698678 1.001511
v -0.998346 0.698358 1.001511
v 0.998346 0.698358 1.001511
v 0.998346 -0.698678 1.001511
v -0.998346 0.698358 -1.007841
v -0.998346 -0.698678 -1.007841
v 0.998346 0.698358 -0.701146
v 0.998346 -0.698678 -0.701146
v 0.998346 0.698358 0.700128
v 0.998346 -0.698678 0.700128
v -0.998346 0.698358 0.700128
v -0.998346 -0.698678 0.700128
v -0.998346 0.698358 -0.701146
v -0.998346 -0.698678 -0.701146
v 0.702510 -0.998346 -1.007841
v -0.694551 -0.998346 -1.007841
v 0.702510 0.998346 1.001511
v -0.694551 0.998346 1.001511
v -0.694551 -0.998346 1.001511
v 0.702510 -0.998346 1.001511
v -0.694551 0.998346 -1.007841
v 0.702510 0.998346 -1.007841
v 0.702510 -0.998346 -0.701146
v -0.694551 -0.998346 -0.701146
v 0.702510 -0.998346 0.700128
v -0.694551 -0.998346 0.700128
v -0.694551 0.998346 -0.701146
v 0.702510 0.998346 -0.701146
v -0.694551 0.998346 0.700128
v 0.702510 0.998346 0.700128
v -0.694551 -0.698678 -1.007841
v 0.702510 -0.698678 -1.007841
v -0.694551 0.698358 -1.007841
v 0.702510 0.698358 -1.007841
v 0.702510 -0.698678 1.001511
v -0.694551 -0.698678 1.001511
v 0.702510 0.698358 1.001511
v -0.694551 0.698358 1.001511
v -0.696729 -0.698678 0.700128
v 0.702047 -0.698678 0.700128
v -0.698561 0.698358 0.700128
v 0.702510 0.697981 0.700128
v -0.694551 0.698394 -0.701146
v -0.694551 -0.698678 -0.704454
v 0.700885 -0.698678 -0.701146
v 0.702510 0.698561 -0.701146
vt 0.708333 0.750000
vt 0.708333 0.666667
vt 0.000000 0.000000
vt 0.883974 0.372191
vt 0.883974 0.388732
vt 0.871618 0.372191
vt 0.875000 0.500000
vt 0.541667 0.250000
vt 0.875000 0.583333
vt 0.291667 0.666667
vt 0.375000 0.666667
vt 0.375000 0.833333
vt 0.871456 0.428778
vt 0.883695 0.428778
vt 0.871456 0.444474
vt 0.000000 0.000000
vt 0.541667 0.416667
vt 0.625000 0.333333
vt 0.929859 0.444474
vt 0.917158 0.444474
vt 0.929886 0.428778
vt 0.883695 0.388529
vt 0.208333 0.750000
vt 0.375000 0.000000
vt 0.208333 0.666667
vt 0.125000 0.666667
vt 0.375000 0.166667
vt 0.541667 0.000000
vt 0.625000 1.000000
vt 0.625000 0.083333
vt 0.458333 0.166667
vt 0.791667 0.500000
vt 0.791667 0.583333
vt 0.000000 0.000000
vt 0.541667 0.083333
vt 0.541667 0.166667
vt 0.883695 0.444474
vt 0.917158 0.428778
vt 0.871456 0.388529
vt 0.625000 0.500000
vt 0.541667 0.500000
vt 0.458333 0.500000
vt 0.458333 0.250000
vt 0.375000 0.250000
vt 0.871618 0.388732
vt 0.930000 0.388732
vt 0.930000 0.428706
vt 0.916853 0.388732
vt 0.916853 0.372663
vt 0.871618 0.444890
vt 0.883974 0.428706
vt 0.883974 0.444890
vt 0.458333 0.333333
vt 0.375000 0.333333
vt 0.000000 0.000000
vt 0.625000 0.750000
vt 0.625000 0.583333
vt 0.708333 0.583333
vt 0.208333 0.500000
vt 0.208333 0.583333
vt 0.541667 0.333333
vt 0.871618 0.428706
vt 0.916853 0.428706
vt 0.000000 0.000000
vt 0.000000 0.000000
vt 0.000000 0.000000
vt 0.125000 0.583333
vt 0.791667 0.666667
vt 0.375000 0.500000
vt 0.458333 0.416667
vt 0.291667 0.500000
vt 0.917158 0.388529
vt 0.917158 0.372101
vt 0.883695 0.372101
vt 0.929859 0.388529
vt 0.871456 0.372101
vt 0.929859 0.372101
vt 0.930000 0.372663
vt 0.916853 0.444890
vt 0.930000 0.444890
vt 0.871618 0.388732
vt 0.871618 0.428706
vt 0.883974 0.388732
vt 0.883974 0.428706
vt 0.458333 0.083333
vt 0.000000 0.000000
vt 0.458333 0.000000
vt 0.458333 1.000000
vt 0.000000 0.000000
vt 0.375000 0.583333
vt 0.291667 0.583333
vt 0.375000 0.750000
vt 0.458333 0.916667
vt 0.375000 0.916667
vt 0.000000 0.000000
vt 0.000000 0.000000
vt 0.458333 0.833333
vt 0.458333 0.666667
vt 0.458333 0.750000
vt 0.000000 0.000000
vt 0.000000 0.000000
vt 0.000000 0.000000
vt 0.000000 0.000000
vt 0.000000 0.000000
vt 0.541667 0.916667
vt 0.625000 0.916667
vt 0.000000 0.000000
vt 0.541667 0.666667
vt 0.541667 0.833333
vt 0.625000 0.833333
vt 0.000000 0.000000
vt 0.000000 0.000000
vt 0.000000 0.000000
vt 0.000000 0.000000
vt 0.000000 0.000000
vt 0.000000 0.000000
vt 0.000000 0.000000
vt 0.000000 0.000000
vt 0.000000 0.000000
vt 0.541667 0.583333
vt 0.000000 0.000000
vt 0.000000 0.000000
vt 0.000000 0.000000
vt 0.000000 0.000000
vn 0.0000 1.0000 0.0000
vn 0.0000 0.0000 1.0000
vn -1.0000 0.0000 0.0000
vn 0.0000 -1.0000 0.0000
vn 1.0000 0.0000 0.0000
vn 0.0000 0.0000 -1.0000
vn 0.9999 0.0073 -0.0072
vn 1.0000 0.0000 -0.0072
vn 0.9999 0.0013 -0.0133
vn -0.9998 0.0134 0.0133
vn -1.0000 0.0000 0.0015
vn -1.0000 0.0003 -0.0000
vn 0.0000 -1.0000 0.0013
vn -0.0003 -1.0000 0.0000
vn -0.0001 1.0000 0.0000
vn 0.9999 -0.0134 0.0000
vn -1.0000 0.0000 -0.0029
vn 0.0109 0.0110 0.9999
vn -0.0109 0.0024 -0.9999
vn -1.0000 -0.0073 -0.0016
vn -1.0000 -0.0015 0.0000
vn -1.0000 -0.0054 0.0008
vn -1.0000 -0.0054 -0.0053
vn -1.0000 0.0000 -0.0053
vn 0.0024 -0.0110 -0.9999
vn -1.0000 0.0012 -0.0000
vn -0.0007 -1.0000 -0.0004
vn 0.0013 -1.0000 0.0000
vn 0.0000 -1.0000 0.0007
vn 0.0001 -1.0000 0.0001
usemtl Material
s off
f 35/1/1 48/2/1 36/3/1
f 37/4/2 54/5/2 8/6/2
f 5/7/3 23/8/3 14/9/3
f 43/10/4 15/11/4 38/12/4
f 15/13/5 28/14/5 4/15/5
f 40/16/6 52/17/6 39/18/6
f 3/19/5 21/20/5 12/21/5
f 26/22/5 28/14/5 15/13/5
f 37/23/4 8/24/4 44/25/4
f 10/26/4 9/27/4 44/25/4
f 20/28/3 7/29/3 13/30/3
f 9/27/3 10/26/3 32/31/3
f 39/32/1 5/7/1 45/33/1
f 14/9/1 13/30/1 45/33/1
f 14/9/3 29/34/3 13/30/3
f 29/35/3 20/28/3 13/30/3
f 29/34/3 14/9/3 31/36/3
f 21/20/5 22/37/5 27/38/5
f 27/38/5 12/21/5 21/20/5
f 15/13/5 16/39/5 26/22/5
f 1/40/6 52/17/6 40/16/6
f 17/41/6 18/42/6 52/17/6
f 22/37/5 4/15/5 28/14/5
f 27/38/5 22/37/5 28/14/5
f 24/43/3 6/44/3 32/31/3
f 23/8/3 24/43/3 31/36/3
f 19/45/2 8/6/2 54/5/2
f 22/46/2 21/47/2 53/48/2
f 37/4/2 38/49/2 53/48/2
f 7/50/2 56/51/2 36/52/2
f 53/48/2 54/5/2 37/4/2
f 49/53/6 34/54/6 24/43/6
f 17/41/6 52/17/6 1/40/6
f 12/55/1 35/1/1 3/56/1
f 11/57/1 40/16/1 46/58/1
f 12/55/1 11/57/1 48/2/1
f 44/25/4 43/10/4 38/12/4
f 6/44/4 34/59/4 42/60/4
f 37/23/4 44/25/4 38/12/4
f 51/61/6 39/18/6 52/17/6
f 10/26/4 44/25/4 8/24/4
f 9/27/4 42/60/4 44/25/4
f 20/62/2 56/51/2 7/50/2
f 55/63/2 53/48/2 21/47/2
f 48/2/1 35/1/1 12/55/1
f 47/64/4 48/65/4 36/3/4
f 39/18/6 51/61/6 5/7/6
f 23/8/6 5/7/6 51/61/6
f 51/61/6 49/66/6 23/8/6
f 23/8/6 49/66/6 24/43/6
f 34/54/6 6/44/6 24/43/6
f 5/7/1 14/9/1 45/33/1
f 31/36/3 14/9/3 23/8/3
f 24/43/3 32/31/3 31/36/3
f 9/27/3 32/31/3 6/44/3
f 9/67/4 6/44/4 42/60/4
f 47/68/1 45/33/1 13/30/1
f 7/29/1 36/3/1 47/64/1
f 13/30/1 7/29/1 47/68/1
f 11/57/1 46/58/1 48/2/1
f 40/16/1 11/57/1 1/40/1
f 40/16/1 39/18/1 46/58/1
f 45/33/1 46/58/1 39/18/1
f 18/42/6 2/69/6 50/70/6
f 33/71/6 50/70/6 2/69/6
f 34/59/6 50/70/6 33/71/6
f 34/59/6 49/53/6 50/70/6
f 18/42/6 50/70/6 52/17/6
f 25/72/5 26/22/5 17/73/5
f 17/73/5 26/22/5 18/74/5
f 12/21/5 27/38/5 11/75/5
f 25/72/5 11/75/5 27/38/5
f 26/22/5 16/39/5 18/74/5
f 18/74/5 16/39/5 2/76/5
f 25/72/5 17/73/5 11/75/5
f 11/75/5 17/73/5 1/77/5
f 53/48/2 38/49/2 22/46/2
f 4/78/2 22/46/2 38/49/2
f 55/63/2 21/47/2 35/79/2
f 21/47/2 3/80/2 35/79/2
f 20/81/2 19/82/2 56/83/2
f 19/82/2 54/84/2 56/83/2
f 36/52/2 56/51/2 35/79/2
f 55/63/2 35/79/2 56/51/2
f 10/26/3 30/85/3 32/31/3
f 29/35/3 30/86/3 20/28/3
f 20/28/3 30/86/3 19/87/3
f 30/86/3 10/26/3 19/87/3
f 8/24/3 19/88/3 10/26/3
f 41/89/4 15/11/4 43/10/4
f 16/90/4 15/11/4 41/91/4
f 41/89/4 42/60/4 34/59/4
f 34/59/4 33/71/4 41/89/4
f 38/12/4 15/11/4 4/92/4
f 41/89/4 33/71/4 16/90/4
f 2/69/4 16/90/4 33/71/4
f 44/25/5 54/93/5 37/94/5
f 30/85/6 44/25/6 10/26/6
f 30/85/6 57/95/6 44/25/6
f 44/25/7 57/95/7 54/93/7
f 53/96/1 57/95/1 54/93/1
f 53/97/4 28/98/4 22/99/4
f 28/98/2 43/10/2 15/11/2
f 58/100/1 57/95/1 53/96/1
f 57/95/6 58/100/6 43/101/6
f 44/102/6 57/95/6 43/101/6
f 53/96/4 58/100/4 28/98/4
f 43/101/2 28/98/2 58/100/2
f 54/93/1 57/95/1 30/85/1
f 19/103/1 54/104/1 30/86/1
f 30/86/6 29/35/6 57/95/6
f 57/95/8 56/105/8 54/93/8
f 56/105/1 29/35/1 20/28/1
f 47/68/6 29/34/6 13/30/6
f 47/64/3 56/105/3 36/106/3
f 47/68/6 59/107/6 29/34/6
f 57/95/6 29/34/6 59/107/6
f 57/95/9 59/107/9 56/105/9
f 47/68/10 59/107/10 56/105/10
f 48/2/2 27/108/2 12/55/2
f 48/2/3 55/109/3 35/110/3
f 55/109/11 58/100/11 53/96/11
f 58/100/6 27/108/6 28/98/6
f 48/2/3 60/111/3 55/109/3
f 48/2/2 60/111/2 27/108/2
f 58/100/6 60/111/6 27/108/6
f 58/100/12 55/109/12 60/111/12
f 47/64/2 60/111/2 48/2/2
f 56/105/13 60/111/13 55/109/13
f 59/107/14 60/111/14 56/105/14
f 47/64/6 60/111/6 59/107/6
f 39/18/5 61/112/5 51/61/5
f 61/112/5 39/113/5 45/114/5
f 61/112/2 45/114/2 14/9/2
f 61/112/2 14/9/2 31/36/2
f 59/107/15 61/112/15 31/36/15
f 59/107/4 29/34/4 31/115/4
f 59/107/16 45/33/16 47/68/16
f 59/107/17 45/114/17 61/112/17
f 61/112/6 32/31/6 31/36/6
f 51/61/5 61/112/5 49/66/5
f 42/60/2 32/31/2 9/27/2
f 42/60/3 49/53/3 34/54/3
f 42/60/18 62/116/18 32/31/18
f 42/60/3 62/116/3 49/53/3
f 61/112/5 62/116/5 49/53/5
f 61/112/19 62/116/19 32/31/19
f 57/95/1 32/31/1 30/85/1
f 62/116/4 57/95/4 32/31/4
f 57/95/20 62/116/20 44/25/20
f 62/116/3 42/117/3 44/102/3
f 50/70/5 41/89/5 33/71/5
f 26/118/2 41/91/2 16/90/2
f 58/100/21 41/89/21 43/10/21
f 26/118/1 58/100/1 28/98/1
f 41/91/2 26/118/2 63/119/2
f 58/100/1 26/118/1 63/119/1
f 58/100/22 63/119/22 41/91/22
f 63/119/23 50/70/23 41/89/23
f 52/17/24 50/70/24 63/119/24
f 25/120/2 63/119/2 26/118/2
f 62/116/1 50/70/1 49/53/1
f 62/116/1 63/119/1 50/70/1
f 62/116/25 63/119/25 42/60/25
f 42/117/6 63/119/6 41/89/6
f 46/58/2 25/120/2 11/57/2
f 52/17/3 46/58/3 40/16/3
f 25/120/2 46/58/2 64/121/2
f 46/58/3 52/17/3 64/121/3
f 63/119/26 64/121/26 52/17/26
f 63/119/2 25/120/2 64/121/2
f 64/121/3 48/2/3 46/58/3
f 48/2/3 64/121/3 60/111/3
f 25/120/27 60/111/27 64/121/27
f 60/111/28 25/122/28 27/123/28
f 64/121/29 51/61/29 52/17/29
f 64/121/30 61/112/30 51/61/30
f 46/58/2 61/112/2 64/121/2
f 45/114/2 61/112/2 46/124/2
