# Blender v2.90.1 OBJ File: 'woodVerticalPlane.blend'
# www.blender.org
mtllib glassPlaneBroken1.mtl
o Cube_Cube.001
v -0.481292 2.000000 -0.497738
v -0.481292 -2.000000 0.497738
v -0.481292 -2.000000 -0.497738
v -0.481292 2.000000 0.497738
v 0.481292 -2.000000 0.497738
v 0.481292 2.000000 0.497738
v 0.481292 -2.000000 -0.497738
v 0.481292 2.000000 -0.497738
vt 0.810915 0.186769
vt 0.647864 0.206143
vt 0.647864 0.186769
vt 0.810915 0.206144
vt 0.647864 0.224903
vt 0.810915 0.224903
vt 0.647864 0.242161
vt 0.810915 0.242161
vt 0.647864 0.262331
vt 0.634703 0.242161
vt 0.634703 0.224903
vt 0.823797 0.224903
vt 0.810915 0.262331
vt 0.823797 0.242161
vn 1.0000 0.0000 0.0000
vn 0.0000 0.0000 -1.0000
vn -1.0000 0.0000 0.0000
vn 0.0000 -0.0000 1.0000
vn 0.0000 1.0000 0.0000
vn 0.0000 -1.0000 -0.0000
usemtl None
s 1
f 1/1/1 2/2/1 3/3/1
f 1/1/1 4/4/1 2/2/1
f 4/4/2 5/5/2 2/2/2
f 5/5/2 4/4/2 6/6/2
f 6/6/3 7/7/3 5/5/3
f 8/8/4 3/9/4 7/7/4
f 5/5/5 3/10/5 2/11/5
f 4/12/6 8/8/6 6/6/6
f 6/6/3 8/8/3 7/7/3
f 8/8/4 1/13/4 3/9/4
f 5/5/5 7/7/5 3/10/5
f 4/12/6 1/14/6 8/8/6
