# Blender v2.90.1 OBJ File: 'rock1.blend'
# www.blender.org
mtllib rock1.mtl
o Cube
v -6.100709 1.975558 7.034000
v -6.100709 -1.970629 7.034000
v -3.092149 1.987739 -5.563338
v -6.100712 -1.970629 -8.925650
v 6.100711 1.975558 7.033998
v 6.100711 -1.970629 7.033998
v 3.825741 1.982505 -5.565011
v 6.100709 -1.970629 -8.925652
vt 0.741092 0.839741
vt 0.675751 0.905083
vt 0.675751 0.839741
vt 0.610409 0.970425
vt 0.610409 0.905083
vt 0.536849 0.990095
vt 0.368632 0.835672
vt 0.536849 0.835672
vt 0.375000 0.500000
vt 0.125000 0.750000
vt 0.125000 0.500000
vt 0.200414 0.835672
vt 0.032196 0.990095
vt 0.032196 0.835672
vt 0.368632 0.990095
vt 0.741092 0.905083
vt 0.675751 0.970425
vt 0.375000 0.750000
vt 0.200414 0.990095
vn 0.0000 1.0000 0.0010
vn -0.0000 0.6474 -0.7622
vn 0.8667 0.4988 -0.0000
vn 0.0000 -1.0000 -0.0000
vn -0.7961 0.6051 0.0000
vn 0.0000 0.0000 1.0000
vn 0.0008 1.0000 0.0004
vn 0.0003 0.6478 -0.7618
vn 0.9841 0.0000 -0.1777
vn -0.9726 0.0000 -0.2323
usemtl Material
s off
f 5/1/1 3/2/1 1/3/1
f 3/2/2 8/4/2 4/5/2
f 7/6/3 6/7/3 8/8/3
f 2/9/4 8/10/4 6/11/4
f 2/12/5 3/13/5 4/14/5
f 5/15/6 2/12/6 6/7/6
f 5/1/7 7/16/7 3/2/7
f 3/2/8 7/17/8 8/4/8
f 7/6/9 5/15/9 6/7/9
f 2/9/4 4/18/4 8/10/4
f 2/12/10 1/19/10 3/13/10
f 5/15/6 1/19/6 2/12/6
