# Blender v2.90.1 OBJ File: 'rock1.blend'
# www.blender.org
mtllib rock1.mtl
o Cube
v -6.100709 1.975558 7.034000
v -6.100709 -1.970629 7.034000
v -3.092149 1.987739 -5.563338
v -6.100712 -1.970629 -8.925650
v 6.100711 1.975558 7.033998
v 6.100711 -1.970629 7.033998
v 3.825741 1.982505 -5.565011
v 6.100709 -1.970629 -8.925652
vt 0.997678 0.812952
vt 0.763646 0.924211
vt 0.763646 0.812952
vt 0.999213 0.924859
vt 0.764434 0.774271
vt 0.999213 0.774271
vt 0.998186 0.924024
vt 0.762310 0.773521
vt 0.998186 0.773521
vt 0.375000 0.500000
vt 0.125000 0.750000
vt 0.125000 0.500000
vt 0.998218 0.773521
vt 0.762247 0.924024
vt 0.762247 0.773521
vt 0.762310 0.924024
vt 0.997678 0.924211
vt 0.764434 0.924859
vt 0.375000 0.750000
vt 0.998218 0.924024
vn 0.0000 1.0000 0.0010
vn -0.0000 0.6474 -0.7622
vn 0.8667 0.4988 -0.0000
vn 0.0000 -1.0000 -0.0000
vn -0.7961 0.6051 0.0000
vn 0.0000 0.0000 1.0000
vn 0.0008 1.0000 0.0004
vn 0.0003 0.6478 -0.7618
vn 0.9841 0.0000 -0.1777
vn -0.9726 0.0000 -0.2323
usemtl Material
s off
f 5/1/1 3/2/1 1/3/1
f 3/4/2 8/5/2 4/6/2
f 7/7/3 6/8/3 8/9/3
f 2/10/4 8/11/4 6/12/4
f 2/13/5 3/14/5 4/15/5
f 5/16/6 2/13/6 6/8/6
f 5/1/7 7/17/7 3/2/7
f 3/4/8 7/18/8 8/5/8
f 7/7/9 5/16/9 6/8/9
f 2/10/4 4/19/4 8/11/4
f 2/13/10 1/20/10 3/14/10
f 5/16/6 1/20/6 2/13/6
