# Blender v2.90.1 OBJ File: 'rock2.blend1'
# www.blender.org
mtllib rock2.mtl
o Cube
v 6.284107 0.256805 -8.944490
v 6.284107 -3.689382 -8.944490
v 3.917116 0.268986 4.938421
v 6.284110 -3.689382 8.930532
v -5.917314 0.256805 -8.944489
v -5.917314 -3.689382 -8.944489
v -4.283909 0.263752 4.940364
v -5.917311 -3.689382 8.930536
v 3.274295 3.580887 4.935259
v -3.643595 3.575653 4.937202
v 6.282854 3.568707 -8.947652
v -5.918567 3.568707 -8.947650
vt 0.998766 0.818286
vt 0.767407 0.923595
vt 0.767407 0.817726
vt 0.999223 0.923560
vt 0.765122 0.774439
vt 0.999223 0.774439
vt 0.999615 0.925531
vt 0.765110 0.774468
vt 0.999615 0.774468
vt 0.906251 0.815131
vt 0.772872 0.923111
vt 0.772872 0.815131
vt 0.999254 0.774468
vt 0.764999 0.925531
vt 0.764999 0.774468
vt 0.765110 0.925531
vt 0.999254 0.811858
vt 0.765110 0.925531
vt 0.765110 0.811298
vt 0.998766 0.923560
vt 0.764665 0.923560
vt 0.764665 0.774999
vt 0.906251 0.923111
vt 0.999254 0.925531
vt 0.769172 0.815477
vt 0.990537 0.923560
vt 0.769172 0.923560
vt 0.990537 0.815477
vt 0.999615 0.807938
vt 0.765110 0.925531
vt 0.765110 0.808498
vt 0.999254 0.812418
vt 0.764999 0.926651
vt 0.999254 0.924971
vt 0.998766 0.923560
vt 0.999254 0.924411
vt 0.999615 0.925531
vt 0.764999 0.813538
vn 0.0002 0.0009 1.0000
vn 0.0000 0.7101 0.7041
vn -0.9242 0.3819 0.0000
vn 0.0000 -1.0000 -0.0000
vn 0.8583 0.5132 -0.0000
vn -0.0000 0.0000 -1.0000
vn -0.0000 -0.0010 -1.0000
vn -0.0003 0.7105 0.7037
vn -0.9932 0.0000 0.1168
vn 0.9858 0.0000 0.1681
vn -0.0000 1.0000 -0.0009
vn -0.0008 1.0000 -0.0004
vn -0.9932 -0.0003 0.1168
vn 0.9602 0.1866 0.2079
vn 0.0003 0.0010 1.0000
vn -0.9693 0.1876 0.1587
vn 0.9858 0.0005 0.1681
usemtl Material
s off
f 3/1/1 10/2/1 7/3/1
f 3/4/2 8/5/2 4/6/2
f 7/7/3 6/8/3 8/9/3
f 2/10/4 8/11/4 6/12/4
f 2/13/5 3/14/5 4/15/5
f 5/16/6 2/13/6 6/8/6
f 5/17/7 11/18/7 1/19/7
f 3/20/8 7/21/8 8/22/8
f 7/7/9 5/16/9 6/8/9
f 2/10/4 4/23/4 8/11/4
f 2/13/10 1/24/10 3/14/10
f 5/16/6 1/24/6 2/13/6
f 12/25/11 9/26/11 11/27/11
f 12/25/12 10/28/12 9/26/12
f 7/29/13 12/30/13 5/31/13
f 3/32/14 11/33/14 9/34/14
f 3/1/15 9/35/15 10/2/15
f 5/17/7 12/36/7 11/18/7
f 7/29/16 10/37/16 12/30/16
f 3/32/17 1/38/17 11/33/17
