# Blender v2.90.1 OBJ File: 'sling.blend'
# www.blender.org
mtllib sling.mtl
o slingID1
v 0.000000 -0.011464 -0.700000
v 0.000000 5.988536 0.001128
v 0.181173 -0.011464 -0.676148
v 0.350000 -0.011464 -0.606218
v 0.494975 -0.011464 -0.494975
v 0.606218 -0.011464 -0.350000
v 0.676148 -0.011464 -0.181173
v 0.700000 -0.011464 -0.000000
v 0.676148 -0.011464 0.181173
v 0.606218 -0.011464 0.350000
v 0.494975 -0.011464 0.494975
v 0.350000 -0.011464 0.606218
v 0.181174 -0.011464 0.676148
v 0.000000 -0.011464 0.700000
v -0.181173 -0.011464 0.676148
v -0.350000 -0.011464 0.606218
v -0.494974 -0.011464 0.494975
v -0.606218 -0.011464 0.350000
v -0.676148 -0.011464 0.181174
v -0.700000 -0.011464 0.000000
v -0.676148 -0.011464 -0.181173
v -0.606218 -0.011464 -0.350000
v -0.494975 -0.011464 -0.494974
v -0.350000 -0.011464 -0.606218
v -0.181174 -0.011464 -0.676148
v 0.105144 5.814989 -0.460318
v -2.698901 11.124275 -0.615650
v 0.204995 5.872638 -0.423352
v -2.573349 11.196763 -0.504407
v 0.290740 5.922142 -0.347379
v -2.477011 11.252384 -0.359432
v 0.356534 5.960129 -0.248370
v -2.416449 11.287350 -0.190606
v 0.397893 5.984007 -0.133072
v -2.395792 11.299275 -0.009432
v 0.412000 5.992152 -0.009341
v -2.416449 11.287350 0.171741
v 0.397893 5.984007 0.114389
v -2.477011 11.252384 0.340568
v 0.356533 5.960128 0.229688
v -2.573350 11.196762 0.485542
v 0.290739 5.922142 0.328697
v -2.698902 11.124275 0.596785
v 0.204995 5.872638 0.404669
v -2.845110 11.039862 0.666715
v 0.105143 5.814988 0.452427
v -3.002011 10.949275 0.690567
v -0.002010 5.753123 0.451096
v -3.158912 10.858688 0.666715
v -0.109164 5.691257 0.452427
v -3.305120 10.774275 0.596785
v -0.209016 5.633608 0.404669
v -3.430672 10.701788 0.485542
v -0.294760 5.584104 0.328697
v -3.527011 10.646166 0.340567
v -0.360554 5.546118 0.229688
v -3.587572 10.611201 0.171741
v -0.360554 5.546118 -0.248370
v -3.608229 10.599276 -0.009433
v -0.294760 5.584104 -0.347380
v -3.587572 10.611201 -0.190606
v -0.209016 5.633608 -0.423352
v -3.527011 10.646166 -0.359433
v -0.002010 5.753123 -0.440846
v -3.430671 10.701788 -0.504407
v -0.109164 5.691257 -0.460318
v -3.305120 10.774275 -0.615650
v -2.845109 11.039862 -0.685581
v -3.158911 10.858688 -0.685581
v -0.401914 5.522238 0.114389
v -0.002010 5.753123 -0.008334
v -0.416021 5.514093 -0.009341
v -3.002010 10.949275 -0.709433
v 0.138473 5.988536 -0.438051
v 0.000000 5.988536 -0.437760
v 0.267510 5.988536 -0.463340
v 0.378316 5.988536 -0.378316
v 0.463340 5.988536 -0.267510
v 0.516789 5.988536 -0.138473
v 0.535020 5.988536 -0.000000
v 0.516789 5.988536 0.138473
v 0.463341 5.988536 0.267510
v 0.378316 5.988536 0.378316
v 0.267510 5.988536 0.456073
v 0.138473 5.988536 0.446506
v 0.000000 5.988536 0.475337
v -0.138473 5.988536 0.446506
v -0.267509 5.988536 0.456073
v -0.378316 5.988536 0.378316
v -0.463340 5.988536 0.267510
v -0.516789 5.988536 0.138473
v -0.535019 5.988536 0.000000
v -0.516789 5.988536 -0.138473
v -0.463341 5.988536 -0.267509
v -0.378316 5.988536 -0.378316
v -0.267510 5.988536 -0.463340
v -0.138474 5.988536 -0.443792
v 0.000000 -0.011464 0.000000
v -3.002010 10.949275 -0.009433
v -0.401914 5.522238 -0.133072
v 0.135326 5.661118 -0.460318
v 3.331280 10.744135 -0.615650
v 0.235177 5.603469 -0.423352
v 3.456833 10.671648 -0.504407
v 0.320921 5.553964 -0.347379
v 3.553171 10.616027 -0.359432
v 0.386716 5.515978 -0.248370
v 3.613733 10.581061 -0.190606
v 0.428075 5.492099 -0.133072
v 3.634389 10.569135 -0.009432
v 0.442182 5.483954 -0.009341
v 3.613733 10.581061 0.171741
v 0.428075 5.492099 0.114389
v 3.553171 10.616027 0.340568
v 0.386715 5.515978 0.229688
v 3.456832 10.671648 0.485542
v 0.320921 5.553965 0.328697
v 3.331280 10.744136 0.596785
v 0.235177 5.603469 0.404669
v 3.185072 10.828549 0.666715
v 0.135325 5.661119 0.452427
v 3.028171 10.919135 0.690567
v 0.028172 5.722983 0.451096
v 2.871270 11.009723 0.666715
v -0.078983 5.784848 0.452427
v 2.725062 11.094135 0.596785
v -0.178834 5.842498 0.404669
v 2.599511 11.166623 0.485542
v -0.264578 5.892002 0.328697
v 2.503171 11.222244 0.340567
v -0.330372 5.929989 0.229688
v 2.442610 11.257210 0.171741
v -0.330372 5.929989 -0.248370
v 2.421954 11.269135 -0.009433
v -0.264578 5.892002 -0.347380
v 2.442610 11.257210 -0.190606
v -0.178834 5.842498 -0.423352
v 2.503171 11.222244 -0.359433
v 0.028172 5.722983 -0.440846
v 2.599511 11.166623 -0.504407
v -0.078982 5.784849 -0.460318
v 2.725062 11.094135 -0.615650
v 3.185072 10.828548 -0.685581
v 2.871270 11.009723 -0.685581
v -0.371732 5.953868 0.114389
v -0.385839 5.962012 -0.009341
v 3.028171 10.919135 -0.709433
v 3.028171 10.919135 -0.009433
v -0.371732 5.953868 -0.133072
vt 0.510855 0.745732
vt 0.517086 0.685959
vt 0.517877 0.204755
vt 0.535950 0.149075
vt 0.535160 0.630279
vt 0.564634 0.101281
vt 0.563844 0.582485
vt 0.517680 0.324318
vt 0.516890 0.805522
vt 0.511645 0.264527
vt 0.737866 0.487980
vt 0.781316 0.464971
vt 0.780526 0.946175
vt 0.737075 0.969184
vt 0.818656 0.428321
vt 0.817865 0.909525
vt 0.847340 0.380527
vt 0.846549 0.861732
vt 0.865413 0.324847
vt 0.864623 0.806052
vt 0.871645 0.265075
vt 0.870854 0.746279
vt 0.535571 0.380053
vt 0.534780 0.861257
vt 0.563307 0.909138
vt 0.691265 0.495779
vt 0.690475 0.976984
vt 0.644691 0.487838
vt 0.643901 0.969042
vt 0.601316 0.464697
vt 0.600526 0.945902
vt 0.564098 0.427934
vt 0.128816 0.464506
vt 0.503816 0.465073
vt 0.864819 0.686488
vt 0.601974 0.064631
vt 0.601183 0.545835
vt 0.645424 0.041622
vt 0.644634 0.522827
vt 0.692024 0.033823
vt 0.691234 0.515027
vt 0.738599 0.041764
vt 0.737808 0.522969
vt 0.781973 0.064905
vt 0.781183 0.546109
vt 0.819192 0.101669
vt 0.818402 0.582873
vt 0.847719 0.149549
vt 0.846929 0.630754
vt 0.865609 0.205284
vt 0.510855 0.745732
vt 0.517086 0.685959
vt 0.517877 0.204755
vt 0.548516 0.319337
vt 0.562930 0.359416
vt 0.586691 0.398724
vt 0.617352 0.428905
vt 0.653010 0.447902
vt 0.691277 0.454422
vt 0.729561 0.448019
vt 0.765263 0.429130
vt 0.795971 0.399042
vt 0.819683 0.359806
vt 0.834438 0.316856
vt 0.835617 0.265020
vt 0.834609 0.213181
vt 0.819995 0.170186
vt 0.796412 0.130878
vt 0.765802 0.100697
vt 0.730163 0.081699
vt 0.691900 0.075180
vt 0.653612 0.081583
vt 0.617891 0.100472
vt 0.587132 0.130559
vt 0.563242 0.169795
vt 0.548696 0.209829
vt 0.552422 0.264589
vt 0.531939 0.745764
vt 0.537268 0.798551
vt 0.553062 0.847757
vt 0.578248 0.890029
vt 0.611107 0.922486
vt 0.649401 0.942916
vt 0.690520 0.949927
vt 0.731661 0.943042
vt 0.770022 0.922728
vt 0.802988 0.890371
vt 0.828312 0.848176
vt 0.844268 0.799018
vt 0.849770 0.746247
vt 0.844441 0.693460
vt 0.828647 0.644254
vt 0.803461 0.601982
vt 0.770602 0.569525
vt 0.732308 0.549094
vt 0.691190 0.542083
vt 0.650048 0.548969
vt 0.611687 0.569283
vt 0.578721 0.601640
vt 0.553397 0.643835
vt 0.537441 0.692993
vt 0.548516 0.319337
vt 0.517680 0.324318
vt 0.511645 0.264527
vt 0.847719 0.149549
vt 0.846929 0.630754
vt 0.865609 0.205284
vt 0.818402 0.582873
vt 0.819192 0.101669
vt 0.781183 0.546109
vt 0.781973 0.064905
vt 0.737808 0.522969
vt 0.738599 0.041764
vt 0.691234 0.515027
vt 0.692024 0.033823
vt 0.644634 0.522827
vt 0.645424 0.041622
vt 0.601183 0.545835
vt 0.601974 0.064631
vt 0.563844 0.582485
vt 0.564634 0.101281
vt 0.516890 0.805522
vt 0.534780 0.861257
vt 0.737075 0.969184
vt 0.690475 0.976984
vt 0.691265 0.495779
vt 0.780526 0.946175
vt 0.781316 0.464971
vt 0.817865 0.909525
vt 0.818656 0.428321
vt 0.846549 0.861732
vt 0.847340 0.380527
vt 0.864623 0.806052
vt 0.865413 0.324847
vt 0.870854 0.746279
vt 0.864819 0.686488
vt 0.871645 0.265075
vt 0.564098 0.427934
vt 0.563307 0.909138
vt 0.535571 0.380053
vt 0.600526 0.945902
vt 0.643901 0.969042
vt 0.601316 0.464697
vt 0.644691 0.487838
vt 0.737866 0.487980
vt 0.535160 0.630279
vt 0.535950 0.149075
vt 0.128816 0.464506
vt 0.503816 0.465073
vt 0.531939 0.745764
vt 0.552422 0.264589
vt 0.548696 0.209829
vt 0.563242 0.169795
vt 0.587132 0.130559
vt 0.617891 0.100472
vt 0.653612 0.081583
vt 0.691900 0.075180
vt 0.730163 0.081699
vt 0.765802 0.100697
vt 0.796412 0.130878
vt 0.819995 0.170186
vt 0.834609 0.213181
vt 0.834438 0.316856
vt 0.819683 0.359806
vt 0.795971 0.399042
vt 0.765263 0.429130
vt 0.729561 0.448019
vt 0.691277 0.454422
vt 0.653010 0.447902
vt 0.617352 0.428905
vt 0.586691 0.398724
vt 0.562930 0.359416
vt 0.835617 0.265020
vt 0.537268 0.798551
vt 0.553062 0.847757
vt 0.578248 0.890029
vt 0.611107 0.922486
vt 0.649401 0.942916
vt 0.690520 0.949927
vt 0.731661 0.943042
vt 0.770022 0.922728
vt 0.802988 0.890371
vt 0.828312 0.848176
vt 0.844268 0.799018
vt 0.849770 0.746247
vt 0.844441 0.693460
vt 0.828647 0.644254
vt 0.803461 0.601982
vt 0.770602 0.569525
vt 0.732308 0.549094
vt 0.691190 0.542083
vt 0.650048 0.548969
vt 0.611687 0.569283
vt 0.578721 0.601640
vt 0.553397 0.643835
vt 0.537441 0.692993
vt 0.510855 0.745732
vt 0.517086 0.685959
vt 0.517877 0.204755
vt 0.847719 0.149549
vt 0.846929 0.630754
vt 0.865609 0.205284
vt 0.818402 0.582873
vt 0.819192 0.101669
vt 0.781183 0.546109
vt 0.781973 0.064905
vt 0.737808 0.522969
vt 0.738599 0.041764
vt 0.691234 0.515027
vt 0.692024 0.033823
vt 0.644634 0.522827
vt 0.645424 0.041622
vt 0.601183 0.545835
vt 0.601974 0.064631
vt 0.563844 0.582485
vt 0.564634 0.101281
vt 0.516890 0.805522
vt 0.511645 0.264527
vt 0.534780 0.861257
vt 0.517680 0.324318
vt 0.737075 0.969184
vt 0.690475 0.976984
vt 0.691265 0.495779
vt 0.780526 0.946175
vt 0.781316 0.464971
vt 0.817865 0.909525
vt 0.818656 0.428321
vt 0.846549 0.861732
vt 0.847340 0.380527
vt 0.864623 0.806052
vt 0.865413 0.324847
vt 0.870854 0.746279
vt 0.864819 0.686488
vt 0.871645 0.265075
vt 0.564098 0.427934
vt 0.563307 0.909138
vt 0.535571 0.380053
vt 0.600526 0.945902
vt 0.643901 0.969042
vt 0.601316 0.464697
vt 0.644691 0.487838
vt 0.737866 0.487980
vt 0.535160 0.630279
vt 0.535950 0.149075
vt 0.128816 0.464506
vt 0.503816 0.465073
vt 0.531939 0.745764
vt 0.537268 0.798551
vt 0.553062 0.847757
vt 0.578248 0.890029
vt 0.611107 0.922486
vt 0.649401 0.942916
vt 0.690520 0.949927
vt 0.731661 0.943042
vt 0.770022 0.922728
vt 0.802988 0.890371
vt 0.828312 0.848176
vt 0.844268 0.799018
vt 0.849770 0.746247
vt 0.844441 0.693460
vt 0.828647 0.644254
vt 0.803461 0.601982
vt 0.770602 0.569525
vt 0.732308 0.549094
vt 0.691190 0.542083
vt 0.650048 0.548969
vt 0.611687 0.569283
vt 0.578721 0.601640
vt 0.553397 0.643835
vt 0.537441 0.692993
vn -0.1304 0.0393 -0.9907
vn 0.1497 0.0372 -0.9880
vn -0.3825 0.0273 -0.9235
vn -0.6085 0.0273 -0.7931
vn -0.0021 0.0396 -0.9992
vn 0.9235 0.0273 0.3825
vn 0.7931 0.0273 0.6085
vn 0.5742 0.0284 0.8182
vn -0.0739 0.0376 0.9966
vn 0.2037 0.0366 0.9783
vn -0.1923 0.0207 -0.9811
vn 0.6085 0.0273 -0.7931
vn 0.9911 0.0273 0.1305
vn 0.9911 0.0273 -0.1305
vn 0.9235 0.0273 -0.3825
vn 0.7931 0.0273 -0.6085
vn 0.0435 0.0436 -0.9981
vn -0.2037 0.0389 0.9783
vn -0.1304 0.0371 0.9908
vn 0.1304 0.0388 0.9907
vn 0.3825 0.0284 0.9235
vn 0.6085 0.0273 0.7931
vn 0.3824 0.0394 -0.9232
vn 0.1304 0.0433 -0.9905
vn -0.7931 0.0273 -0.6085
vn -0.9235 0.0273 -0.3825
vn -0.9911 0.0273 -0.1305
vn -0.9911 0.0273 0.1305
vn -0.9235 0.0273 0.3825
vn -0.7931 0.0273 0.6085
vn -0.5742 0.0271 0.8183
vn -0.6085 0.0282 0.7930
vn 0.0739 0.0239 0.9970
vn -0.3824 0.0381 0.9232
vn 0.1322 0.0319 -0.9907
vn 0.0000 1.0000 -0.0000
vn 0.0000 -1.0000 0.0000
vn 0.5000 -0.8660 0.0000
vn 0.3495 0.1595 0.9233
vn 0.5452 0.2724 0.7928
vn 0.7049 0.3647 0.6084
vn 0.8179 0.4299 0.3824
vn 0.8764 0.4637 0.1304
vn 0.8764 0.4636 -0.1304
vn 0.8179 0.4299 -0.3824
vn 0.7049 0.3647 -0.6084
vn -0.0908 -0.1036 -0.9905
vn -0.3120 -0.2244 -0.9232
vn -0.8397 -0.5271 0.1304
vn -0.6683 -0.4281 0.6084
vn -0.5085 -0.3359 0.7928
vn -0.3129 -0.2229 0.9233
vn -0.0946 -0.0969 0.9908
vn 0.1327 0.0310 0.9907
vn -0.1124 -0.1159 -0.9869
vn -0.5085 -0.3359 -0.7928
vn -0.6683 -0.4282 -0.6084
vn -0.7812 -0.4934 -0.3824
vn -0.8397 -0.5271 -0.1304
vn -0.2462 -0.1839 -0.9516
vn 0.0292 -0.0292 0.9991
vn 0.1523 0.0469 -0.9872
vn 0.5452 0.2724 -0.7928
vn 0.3495 0.1595 -0.9233
vn 0.2835 0.1191 -0.9515
vn -0.7812 -0.4934 0.3824
vn 0.0085 -0.0362 0.9993
vn -0.5000 0.8660 0.0000
vn 0.0937 -0.0985 -0.9907
vn 0.3129 -0.2229 0.9233
vn 0.5085 -0.3359 0.7928
vn 0.6683 -0.4281 0.6084
vn 0.7812 -0.4934 0.3824
vn 0.8397 -0.5271 0.1304
vn 0.8397 -0.5271 -0.1304
vn 0.7812 -0.4934 -0.3824
vn 0.6683 -0.4282 -0.6084
vn -0.1351 0.0268 -0.9905
vn -0.3503 0.1580 -0.9232
vn -0.8764 0.4637 0.1304
vn -0.7049 0.3647 0.6084
vn -0.5452 0.2724 0.7928
vn -0.3495 0.1595 0.9233
vn -0.1313 0.0335 0.9908
vn 0.0932 -0.0995 0.9907
vn -0.1566 0.0394 -0.9869
vn -0.5452 0.2724 -0.7928
vn -0.7049 0.3647 -0.6084
vn -0.8179 0.4299 -0.3824
vn -0.8764 0.4636 -0.1304
vn -0.2823 0.1213 -0.9516
vn -0.0106 -0.0399 0.9991
vn 0.1168 -0.1085 -0.9872
vn 0.5085 -0.3359 -0.7928
vn 0.3129 -0.2230 -0.9233
vn 0.2449 -0.1860 -0.9515
vn -0.8179 0.4299 0.3824
vn -0.0271 -0.0254 0.9993
vn 0.5000 0.8660 0.0000
usemtl wood
s off
f 1/1/1 25/2/1 97/3/1
f 25/2/2 96/4/2 97/3/2
f 25/2/3 24/5/3 96/4/3
f 24/5/4 95/6/4 96/4/4
f 24/5/4 23/7/4 95/6/4
f 74/8/5 3/9/5 75/10/5
f 81/11/6 82/12/6 10/13/6
f 10/13/6 9/14/6 81/11/6
f 82/12/7 83/15/7 11/16/7
f 83/15/8 84/17/8 12/18/8
f 84/17/9 85/19/9 13/20/9
f 85/19/10 86/21/10 14/22/10
f 76/23/11 4/24/11 74/8/11
f 5/25/12 4/24/12 76/23/12
f 80/26/13 81/11/13 9/14/13
f 80/26/14 8/27/14 79/28/14
f 8/27/14 7/29/14 79/28/14
f 79/28/15 7/29/15 78/30/15
f 78/30/16 6/31/16 77/32/16
f 7/29/15 6/31/15 78/30/15
f 6/31/16 5/25/16 77/32/16
f 77/32/12 5/25/12 76/23/12
f 97/3/17 75/10/17 1/1/17
f 86/21/18 87/33/18 15/34/18
f 14/22/19 86/21/19 15/35/19
f 13/20/20 85/19/20 14/22/20
f 12/18/21 84/17/21 13/20/21
f 11/16/22 83/15/22 12/18/22
f 10/13/7 82/12/7 11/16/7
f 9/14/13 8/27/13 80/26/13
f 4/24/23 3/9/23 74/8/23
f 3/9/24 1/1/24 75/10/24
f 94/36/25 95/6/25 23/7/25
f 23/7/25 22/37/25 94/36/25
f 94/36/26 22/37/26 93/38/26
f 22/37/26 21/39/26 93/38/26
f 93/38/27 21/39/27 92/40/27
f 21/39/27 20/41/27 92/40/27
f 92/40/28 20/41/28 91/42/28
f 20/41/28 19/43/28 91/42/28
f 91/42/29 19/43/29 90/44/29
f 19/43/29 18/45/29 90/44/29
f 90/44/30 18/45/30 89/46/30
f 18/45/30 17/47/30 89/46/30
f 89/46/31 17/47/31 88/48/31
f 17/47/32 16/49/32 88/48/32
f 88/48/33 16/49/33 87/50/33
f 15/35/34 87/50/34 16/49/34
f 73/51/35 68/52/35 26/53/35
f 2/54/36 74/8/36 75/10/36
f 2/55/36 76/23/36 74/8/36
f 2/56/36 77/32/36 76/23/36
f 2/57/36 78/30/36 77/32/36
f 2/58/36 79/28/36 78/30/36
f 2/59/36 80/26/36 79/28/36
f 2/60/36 81/11/36 80/26/36
f 2/61/36 82/12/36 81/11/36
f 2/62/36 83/15/36 82/12/36
f 2/63/36 84/17/36 83/15/36
f 2/64/36 85/19/36 84/17/36
f 2/65/36 86/21/36 85/19/36
f 2/66/36 87/50/36 86/21/36
f 2/67/36 88/48/36 87/50/36
f 2/68/36 89/46/36 88/48/36
f 2/69/36 90/44/36 89/46/36
f 2/70/36 91/42/36 90/44/36
f 2/71/36 92/40/36 91/42/36
f 2/72/36 93/38/36 92/40/36
f 2/73/36 94/36/36 93/38/36
f 2/74/36 95/6/36 94/36/36
f 2/75/36 96/4/36 95/6/36
f 2/76/36 97/3/36 96/4/36
f 2/77/36 75/10/36 97/3/36
f 1/1/37 3/9/37 98/78/37
f 3/9/37 4/24/37 98/79/37
f 4/24/37 5/25/37 98/80/37
f 5/25/37 6/31/37 98/81/37
f 6/31/37 7/29/37 98/82/37
f 7/29/37 8/27/37 98/83/37
f 8/27/37 9/14/37 98/84/37
f 9/14/37 10/13/37 98/85/37
f 10/13/37 11/16/37 98/86/37
f 11/16/37 12/18/37 98/87/37
f 12/18/37 13/20/37 98/88/37
f 13/20/37 14/22/37 98/89/37
f 14/22/37 15/35/37 98/90/37
f 15/35/37 16/49/37 98/91/37
f 16/49/37 17/47/37 98/92/37
f 17/47/37 18/45/37 98/93/37
f 18/45/37 19/43/37 98/94/37
f 19/43/37 20/41/37 98/95/37
f 20/41/37 21/39/37 98/96/37
f 21/39/37 22/37/37 98/97/37
f 22/37/37 23/7/37 98/98/37
f 23/7/37 24/5/37 98/99/37
f 24/5/37 25/2/37 98/100/37
f 25/2/37 1/1/37 98/101/37
f 71/102/38 66/103/38 64/104/38
f 44/105/39 43/106/39 46/107/39
f 41/108/40 43/106/40 44/105/40
f 42/109/40 41/108/40 44/105/40
f 39/110/41 41/108/41 42/109/41
f 40/111/41 39/110/41 42/109/41
f 37/112/42 39/110/42 40/111/42
f 38/113/42 37/112/42 40/111/42
f 35/114/43 37/112/43 38/113/43
f 36/115/43 35/114/43 38/113/43
f 33/116/44 35/114/44 36/115/44
f 34/117/44 33/116/44 36/115/44
f 31/118/45 33/116/45 34/117/45
f 32/119/45 31/118/45 34/117/45
f 29/120/46 31/118/46 32/119/46
f 32/119/46 30/121/46 29/120/46
f 69/122/47 73/51/47 64/104/47
f 67/123/48 69/122/48 66/103/48
f 57/124/49 59/125/49 72/126/49
f 55/127/50 56/128/50 53/129/50
f 53/129/51 54/130/51 51/131/51
f 51/131/52 52/132/52 49/133/52
f 49/133/53 50/134/53 47/135/53
f 45/136/39 46/107/39 43/106/39
f 47/135/54 48/137/54 45/136/54
f 26/53/55 64/104/55 73/51/55
f 60/138/56 65/139/56 62/140/56
f 63/141/57 65/139/57 60/138/57
f 61/142/58 63/141/58 58/143/58
f 58/143/57 63/141/57 60/138/57
f 100/144/58 61/142/58 58/143/58
f 59/125/59 61/142/59 100/144/59
f 72/126/59 59/125/59 100/144/59
f 72/126/49 70/145/49 57/124/49
f 65/139/56 67/123/56 62/140/56
f 62/140/60 67/123/60 66/103/60
f 50/134/61 48/137/61 47/135/61
f 52/132/52 50/134/52 49/133/52
f 54/130/51 52/132/51 51/131/51
f 56/128/50 54/130/50 53/129/50
f 66/103/62 69/122/62 64/104/62
f 27/146/63 29/120/63 30/121/63
f 27/146/63 30/121/63 28/147/63
f 68/52/64 27/146/64 28/147/64
f 68/52/65 28/147/65 26/53/65
f 55/127/66 57/124/66 70/145/66
f 70/145/66 56/128/66 55/127/66
f 48/137/67 46/148/67 45/149/67
f 73/51/68 69/122/68 99/150/68
f 71/151/38 64/104/38 26/53/38
f 71/152/38 26/53/38 28/147/38
f 71/153/38 28/147/38 30/121/38
f 71/154/38 30/121/38 32/119/38
f 71/155/38 32/119/38 34/117/38
f 71/156/38 34/117/38 36/115/38
f 71/157/38 36/115/38 38/113/38
f 71/158/38 38/113/38 40/111/38
f 71/159/38 40/111/38 42/109/38
f 71/160/38 42/109/38 44/105/38
f 71/161/38 44/105/38 46/107/38
f 71/162/38 46/107/38 48/137/38
f 71/163/38 50/134/38 52/132/38
f 71/164/38 52/132/38 54/130/38
f 71/165/38 54/130/38 56/128/38
f 71/166/38 56/128/38 70/145/38
f 71/167/38 70/145/38 72/126/38
f 71/168/38 72/126/38 100/144/38
f 71/169/38 100/144/38 58/143/38
f 71/170/38 58/143/38 60/138/38
f 71/171/38 60/138/38 62/140/38
f 71/172/38 62/140/38 66/103/38
f 71/173/38 48/137/38 50/134/38
f 69/122/68 67/123/68 99/174/68
f 67/123/68 65/139/68 99/175/68
f 65/139/68 63/141/68 99/176/68
f 63/141/68 61/142/68 99/177/68
f 61/142/68 59/125/68 99/178/68
f 59/125/68 57/124/68 99/179/68
f 57/124/68 55/127/68 99/180/68
f 55/127/68 53/129/68 99/181/68
f 53/129/68 51/131/68 99/182/68
f 51/131/68 49/133/68 99/183/68
f 49/133/68 47/135/68 99/184/68
f 47/135/68 45/136/68 99/185/68
f 45/136/68 43/106/68 99/186/68
f 43/106/68 41/108/68 99/187/68
f 41/108/68 39/110/68 99/188/68
f 39/110/68 37/112/68 99/189/68
f 37/112/68 35/114/68 99/190/68
f 35/114/68 33/116/68 99/191/68
f 33/116/68 31/118/68 99/192/68
f 31/118/68 29/120/68 99/193/68
f 29/120/68 27/146/68 99/194/68
f 27/146/68 68/52/68 99/195/68
f 68/52/68 73/51/68 99/196/68
f 147/197/69 143/198/69 101/199/69
f 119/200/70 118/201/70 121/202/70
f 116/203/71 118/201/71 119/200/71
f 117/204/71 116/203/71 119/200/71
f 114/205/72 116/203/72 117/204/72
f 115/206/72 114/205/72 117/204/72
f 112/207/73 114/205/73 115/206/73
f 113/208/73 112/207/73 115/206/73
f 110/209/74 112/207/74 113/208/74
f 111/210/74 110/209/74 113/208/74
f 108/211/75 110/209/75 111/210/75
f 109/212/75 108/211/75 111/210/75
f 106/213/76 108/211/76 109/212/76
f 107/214/76 106/213/76 109/212/76
f 104/215/77 106/213/77 107/214/77
f 107/214/77 105/216/77 104/215/77
f 144/217/78 147/197/78 139/218/78
f 142/219/79 144/217/79 141/220/79
f 132/221/80 134/222/80 146/223/80
f 130/224/81 131/225/81 128/226/81
f 128/226/82 129/227/82 126/228/82
f 126/228/83 127/229/83 124/230/83
f 124/230/84 125/231/84 122/232/84
f 120/233/70 121/202/70 118/201/70
f 122/232/85 123/234/85 120/233/85
f 101/199/86 139/218/86 147/197/86
f 135/235/87 140/236/87 137/237/87
f 138/238/88 140/236/88 135/235/88
f 136/239/89 138/238/89 133/240/89
f 133/240/88 138/238/88 135/235/88
f 149/241/89 136/239/89 133/240/89
f 134/222/90 136/239/90 149/241/90
f 146/223/90 134/222/90 149/241/90
f 146/223/80 145/242/80 132/221/80
f 140/236/87 142/219/87 137/237/87
f 137/237/91 142/219/91 141/220/91
f 125/231/92 123/234/92 122/232/92
f 127/229/83 125/231/83 124/230/83
f 129/227/82 127/229/82 126/228/82
f 131/225/81 129/227/81 128/226/81
f 141/220/93 144/217/93 139/218/93
f 102/243/94 104/215/94 105/216/94
f 102/243/94 105/216/94 103/244/94
f 143/198/95 102/243/95 103/244/95
f 143/198/96 103/244/96 101/199/96
f 130/224/97 132/221/97 145/242/97
f 145/242/97 131/225/97 130/224/97
f 123/234/98 121/245/98 120/246/98
f 147/197/99 144/217/99 148/247/99
f 144/217/99 142/219/99 148/248/99
f 142/219/99 140/236/99 148/249/99
f 140/236/99 138/238/99 148/250/99
f 138/238/99 136/239/99 148/251/99
f 136/239/99 134/222/99 148/252/99
f 134/222/99 132/221/99 148/253/99
f 132/221/99 130/224/99 148/254/99
f 130/224/99 128/226/99 148/255/99
f 128/226/99 126/228/99 148/256/99
f 126/228/99 124/230/99 148/257/99
f 124/230/99 122/232/99 148/258/99
f 122/232/99 120/233/99 148/259/99
f 120/233/99 118/201/99 148/260/99
f 118/201/99 116/203/99 148/261/99
f 116/203/99 114/205/99 148/262/99
f 114/205/99 112/207/99 148/263/99
f 112/207/99 110/209/99 148/264/99
f 110/209/99 108/211/99 148/265/99
f 108/211/99 106/213/99 148/266/99
f 106/213/99 104/215/99 148/267/99
f 104/215/99 102/243/99 148/268/99
f 102/243/99 143/198/99 148/269/99
f 143/198/99 147/197/99 148/270/99
