# Blender v2.90.1 OBJ File: 'stoneSquare.blend1'
# www.blender.org
mtllib stoneSquare.mtl
o Cube_Cube.002
v -2.000000 -2.000000 2.000000
v -2.000000 2.000000 2.000000
v -2.000000 -2.000000 -2.000000
v -2.000000 2.000000 -2.000000
v 2.000000 -2.000000 2.000000
v 2.000000 2.000000 2.000000
v 2.000000 -2.000000 -2.000000
v 2.000000 2.000000 -2.000000
vt 0.885801 0.268158
vt 0.851819 0.309061
vt 0.851819 0.268158
vt 0.885801 0.309413
vt 0.851819 0.353427
vt 0.851819 0.309413
vt 0.885513 0.353780
vt 0.851531 0.396460
vt 0.851531 0.353780
vt 0.886089 0.396107
vt 0.851819 0.437009
vt 0.851819 0.396107
vt 0.850379 0.353427
vt 0.814583 0.396107
vt 0.814583 0.353427
vt 0.921661 0.353427
vt 0.886953 0.396107
vt 0.886953 0.353427
vt 0.885801 0.309061
vt 0.886141 0.309491
vt 0.886141 0.353504
vt 0.852159 0.353504
vt 0.886377 0.353427
vt 0.886377 0.396107
vt 0.852395 0.396107
vt 0.885801 0.396107
vt 0.885801 0.437009
vt 0.850955 0.353427
vt 0.850955 0.396107
vt 0.815159 0.396107
vt 0.922525 0.353427
vt 0.922525 0.396107
vt 0.887817 0.396107
vn -1.0000 0.0000 0.0000
vn 0.0000 0.0000 -1.0000
vn 1.0000 0.0000 0.0000
vn 0.0000 0.0000 1.0000
vn 0.0000 -1.0000 0.0000
vn 0.0000 1.0000 0.0000
usemtl None
s off
f 2/1/1 3/2/1 1/3/1
f 4/4/2 7/5/2 3/6/2
f 8/7/3 5/8/3 7/9/3
f 6/10/4 1/11/4 5/12/4
f 7/13/5 1/14/5 3/15/5
f 4/16/6 6/17/6 8/18/6
f 2/1/1 4/19/1 3/2/1
f 4/20/2 8/21/2 7/22/2
f 8/23/3 6/24/3 5/25/3
f 6/26/4 2/27/4 1/11/4
f 7/28/5 5/29/5 1/30/5
f 4/31/6 2/32/6 6/33/6
