# Blender v2.90.1 OBJ File: 'stoneSquare.blend'
# www.blender.org
mtllib stoneSquare.mtl
o Cube.002
v -2.000000 -2.000000 2.000000
v -2.000000 2.000000 2.000000
v -2.000000 -2.000000 -2.000000
v -2.000000 2.000000 -2.000000
v 2.000000 -2.000000 2.000000
v 2.000000 2.000000 2.000000
v 2.000000 -2.000000 -2.000000
v 2.000000 2.000000 -2.000000
vt 0.885869 0.268347
vt 0.851887 0.309249
vt 0.851887 0.268347
vt 0.885869 0.309249
vt 0.851887 0.353263
vt 0.885869 0.353263
vt 0.851887 0.395943
vt 0.885869 0.395943
vt 0.851887 0.436845
vt 0.816090 0.395943
vt 0.816090 0.353263
vt 0.920577 0.353263
vt 0.885869 0.436845
vt 0.920577 0.395943
vn -1.0000 0.0000 0.0000
vn 0.0000 0.0000 -1.0000
vn 1.0000 0.0000 0.0000
vn 0.0000 0.0000 1.0000
vn 0.0000 -1.0000 0.0000
vn 0.0000 1.0000 0.0000
usemtl Material.002
s off
f 2/1/1 3/2/1 1/3/1
f 4/4/2 7/5/2 3/2/2
f 8/6/3 5/7/3 7/5/3
f 6/8/4 1/9/4 5/7/4
f 7/5/5 1/10/5 3/11/5
f 4/12/6 6/8/6 8/6/6
f 2/1/1 4/4/1 3/2/1
f 4/4/2 8/6/2 7/5/2
f 8/6/3 6/8/3 5/7/3
f 6/8/4 2/13/4 1/9/4
f 7/5/5 5/7/5 1/10/5
f 4/12/6 2/14/6 6/8/6
