# Blender v2.90.1 OBJ File: 'stoneSquare.blend'
# www.blender.org
mtllib stoneSquare.mtl
o Cube
v 1.979106 1.979106 -1.979106
v 1.979106 -1.979106 -1.979106
v 1.979106 1.979106 1.979106
v 1.979106 -1.979106 1.979106
v -1.979106 1.979106 -1.979106
v -1.979106 -1.979106 -1.979106
v -1.979106 1.979106 1.979106
v -1.979106 -1.979106 1.979106
vt 0.363051 0.491106
vt 0.363109 0.525521
vt 0.334626 0.491185
vt 0.363109 0.525521
vt 0.334344 0.525590
vt 0.363051 0.491106
vt 0.334626 0.491185
vt 0.334344 0.525590
vt 0.334626 0.491185
vt 0.334344 0.525590
vt 0.363051 0.491106
vt 0.363109 0.525521
vn 0.0000 1.0000 0.0000
vn 0.0000 -1.0000 0.0000
vn 1.0000 0.0000 0.0000
vn 0.0000 0.0000 -1.0000
vn -1.0000 0.0000 0.0000
vn 0.0000 0.0000 1.0000
usemtl Material
s off
f 3/1/1 1/2/1 7/3/1
f 4/4/2 8/5/2 2/6/2
f 4/7/3 2/6/3 3/8/3
f 2/6/4 6/9/4 1/2/4
f 2/6/3 1/2/3 3/8/3
f 6/9/4 5/10/4 1/2/4
f 6/9/5 8/11/5 5/10/5
f 7/12/5 5/10/5 8/11/5
f 7/12/6 8/11/6 4/7/6
f 4/7/6 3/8/6 7/12/6
f 5/10/1 7/3/1 1/2/1
f 6/9/2 2/6/2 8/5/2
