# Blender v2.90.1 OBJ File: 'stoneSquare.blend'
# www.blender.org
mtllib stoneSquare.mtl
o Cube.001
v -1.990350 -1.990350 1.990350
v -1.990350 1.990350 1.990350
v -1.990350 -1.990350 -1.990350
v -1.990350 1.990350 -1.990350
v 1.990350 -1.990350 1.990350
v 1.990350 1.990350 1.990350
v 1.990350 -1.990350 -1.990350
v 1.990350 1.990350 -1.990350
vt 0.885809 0.268550
vt 0.851100 0.311000
vt 0.851100 0.268550
vt 0.885809 0.311000
vt 0.851100 0.351843
vt 0.885809 0.351843
vt 0.851100 0.394822
vt 0.885809 0.394822
vt 0.851100 0.436024
vt 0.816392 0.394822
vt 0.816392 0.351843
vt 0.921969 0.351843
vt 0.885809 0.436024
vt 0.921969 0.394822
vn -1.0000 0.0000 0.0000
vn 0.0000 0.0000 -1.0000
vn 1.0000 0.0000 0.0000
vn 0.0000 0.0000 1.0000
vn 0.0000 -1.0000 0.0000
vn 0.0000 1.0000 0.0000
usemtl Material.001
s off
f 2/1/1 3/2/1 1/3/1
f 4/4/2 7/5/2 3/2/2
f 8/6/3 5/7/3 7/5/3
f 6/8/4 1/9/4 5/7/4
f 7/5/5 1/10/5 3/11/5
f 4/12/6 6/8/6 8/6/6
f 2/1/1 4/4/1 3/2/1
f 4/4/2 8/6/2 7/5/2
f 8/6/3 6/8/3 5/7/3
f 6/8/4 2/13/4 1/9/4
f 7/5/5 5/7/5 1/10/5
f 4/12/6 2/14/6 6/8/6
