# Blender v2.90.1 OBJ File: 'pyramid.blend'
# www.blender.org
o Cube.001
v -2.000000 -2.000000 2.000000
v 0.000563 2.002198 -0.001215
v -2.000000 -2.000000 -2.000000
v 2.000000 -2.000000 2.000000
v 2.000000 -2.000000 -2.000000
v -2.000000 -1.499938 2.000000
v -2.000000 -1.499938 -2.000000
v 2.000000 -1.499938 -2.000000
v 2.000000 -1.499938 2.000000
v -1.491249 -2.000000 -2.000000
v -1.491249 -2.000000 2.000000
v -1.493220 -1.499938 2.000000
v -1.493220 -1.499938 -2.000000
v 1.491995 -2.000000 2.000000
v 1.495470 -1.499938 -2.000000
v 1.491995 -2.000000 -2.000000
v 1.495470 -1.499938 2.000000
v -2.000000 -2.000000 1.387918
v 2.000000 -2.000000 1.387918
v 2.000000 -1.499938 1.389293
v -2.000000 -1.499938 1.389293
v -1.491249 -2.000000 1.387918
v 1.491995 -2.000000 1.387918
v 2.000000 -2.000000 -1.394535
v -2.000000 -1.499938 -1.394739
v -2.000000 -2.000000 -1.394535
v 2.000000 -1.499938 -1.394739
v -1.491249 -2.000000 -1.394535
v 1.491995 -2.000000 -1.394535
v -1.493220 -1.499938 1.390668
v -1.493220 -1.499938 -1.394943
v 1.495470 -1.499938 1.390668
v 1.495470 -1.499938 -1.394943
v 0.004648 1.010974 -0.541629
v 0.004648 1.009906 -0.005660
v 0.536932 1.007451 -0.006246
v 0.536932 1.009587 -0.541629
v -0.553371 1.012360 -0.006246
v -0.553371 1.012360 -0.541629
v -0.553371 1.012360 0.541629
v 0.004648 1.008837 0.541629
v 0.536932 1.005315 0.541629
vt 0.491020 0.514706
vt 0.503410 0.514706
vt 0.503410 0.528941
vt 0.491020 0.528941
vt 0.511222 0.071681
vt 0.523486 0.089839
vt 0.504513 0.078999
vt 0.504513 0.071681
vt 0.511222 0.071681
vt 0.523486 0.089839
vt 0.504513 0.078999
vt 0.504513 0.071681
vt 0.511222 0.071681
vt 0.523486 0.089839
vt 0.504513 0.078999
vt 0.504513 0.071681
vt 0.511222 0.071681
vt 0.523486 0.089839
vt 0.504513 0.078999
vt 0.504513 0.071681
vt 0.566809 0.071681
vt 0.566809 0.078999
vt 0.548655 0.089839
vt 0.560218 0.071681
vt 0.560218 0.071681
vt 0.548655 0.089839
vt 0.438033 0.514706
vt 0.449565 0.514706
vt 0.449565 0.528941
vt 0.438033 0.528941
vt 0.548494 0.119813
vt 0.534965 0.151390
vt 0.522080 0.119779
vt 0.566809 0.071681
vt 0.566809 0.078999
vt 0.438033 0.465611
vt 0.449565 0.465611
vt 0.566809 0.071681
vt 0.566809 0.078999
vt 0.548655 0.089839
vt 0.560218 0.071681
vt 0.560218 0.071681
vt 0.548655 0.089839
vt 0.491020 0.465611
vt 0.503410 0.465611
vt 0.491020 0.450236
vt 0.503410 0.450236
vt 0.566809 0.071681
vt 0.566809 0.078999
vt 0.438033 0.450236
vt 0.449565 0.450236
vt 0.490380 0.464604
vt 0.502803 0.464604
vt 0.502803 0.517130
vt 0.490380 0.517130
vt 0.438978 0.464604
vt 0.448955 0.464604
vt 0.448955 0.517130
vt 0.438978 0.517130
vt 0.448955 0.450265
vt 0.490380 0.450265
vt 0.522080 0.119779
vt 0.548494 0.119813
vt 0.534965 0.151390
vt 0.490380 0.528610
vt 0.448955 0.528610
vt 0.501315 0.525337
vt 0.501315 0.452858
vt 0.491831 0.463625
vt 0.491831 0.515510
vt 0.439233 0.525337
vt 0.449713 0.515510
vt 0.439233 0.452858
vt 0.449713 0.463625
vt 0.548494 0.119813
vt 0.534965 0.151390
vt 0.535675 0.119809
vt 0.535675 0.119809
vt 0.522080 0.119779
vt 0.523205 0.121089
vt 0.535083 0.121089
vt 0.523064 0.091573
vt 0.510989 0.091573
vt 0.535083 0.121089
vt 0.523064 0.091573
vt 0.535675 0.119809
vt 0.522080 0.119779
vt 0.523205 0.121089
vt 0.535083 0.121089
vt 0.548494 0.119813
vt 0.535083 0.121089
vt 0.523064 0.091573
vt 0.523205 0.121089
vt 0.535083 0.121089
vt 0.535083 0.121089
vt 0.523064 0.091573
vt 0.535675 0.119809
vt 0.548494 0.119813
vt 0.523205 0.121089
vt 0.535083 0.121089
vt 0.522080 0.119779
vt 0.535083 0.121089
vn 0.0000 -1.0000 0.0000
vn 0.0000 0.0000 1.0000
vn 1.0000 0.0000 0.0000
vn 0.0000 0.0000 -1.0000
vn -1.0000 0.0000 0.0000
vn -0.8726 0.4884 0.0000
vn 0.0000 1.0000 0.0000
vn 0.8802 0.4746 0.0019
vn 0.0000 -0.0055 1.0000
vn -1.0000 0.0069 0.0000
vn 0.0000 0.0008 1.0000
vn 1.0000 0.0039 0.0000
vn 0.0012 0.4787 -0.8780
vn 0.0031 0.4795 0.8775
vn 0.8640 0.5034 0.0009
vn 0.0007 0.5026 -0.8645
vn -0.0008 -0.4847 0.8747
vn -0.8599 -0.5104 -0.0005
vn -0.8666 0.4990 0.0000
vn 0.8589 -0.5122 -0.0005
vn 0.0007 0.5019 -0.8650
vn -0.0014 -0.4834 0.8754
vn 0.0005 -0.4861 -0.8739
vn 0.8585 -0.5128 -0.0005
vn 0.0017 0.5016 0.8651
vn -0.8596 -0.5110 -0.0005
vn 0.8634 0.5045 0.0009
vn -0.0028 -0.4875 -0.8731
vn 0.0017 0.5036 0.8639
s off
f 23/1/1 19/2/1 4/3/1 14/4/1
f 11/5/2 12/6/2 6/7/2 1/8/2
f 19/9/3 20/10/3 9/11/3 4/12/3
f 16/13/4 15/14/4 8/15/4 5/16/4
f 26/17/5 25/18/5 7/19/5 3/20/5
f 3/21/4 7/22/4 13/23/4 10/24/4
f 14/25/2 17/26/2 12/6/2 11/5/2
f 18/27/1 22/28/1 11/29/1 1/30/1
f 2/31/6 39/32/6 40/33/6
f 4/34/2 9/35/2 17/26/2 14/25/2
f 10/24/4 13/23/4 15/14/4 16/13/4
f 22/28/1 23/1/1 14/4/1 11/29/1
f 26/36/1 28/37/1 22/28/1 18/27/1
f 1/38/5 6/39/5 21/40/5 18/41/5
f 24/42/3 27/43/3 20/10/3 19/9/3
f 29/44/1 24/45/1 19/2/1 23/1/1
f 16/46/1 5/47/1 24/45/1 29/44/1
f 5/48/3 8/49/3 27/43/3 24/42/3
f 3/50/1 10/51/1 28/37/1 26/36/1
f 10/51/1 16/46/1 29/44/1 28/37/1
f 18/41/5 21/40/5 25/18/5 26/17/5
f 30/52/7 12/53/7 17/54/7 32/55/7
f 13/56/7 31/57/7 33/58/7 15/59/7
f 25/60/7 21/61/7 30/52/7 31/57/7
f 2/62/8 42/63/8 37/64/8
f 33/58/7 32/55/7 20/65/7 27/66/7
f 32/67/9 30/68/9 22/69/9 23/70/9
f 33/71/10 29/72/10 23/70/10 32/67/10
f 29/72/11 33/71/11 31/73/11 28/74/11
f 28/74/12 31/73/12 30/68/12 22/69/12
f 2/62/13 37/75/13 39/32/13
f 2/76/14 40/33/14 42/63/14
f 27/43/15 8/49/15 37/75/15 36/77/15
f 8/15/16 15/14/16 34/78/16 37/79/16
f 33/80/17 27/81/17 36/82/17 35/83/17
f 15/84/18 33/80/18 35/83/18 34/85/18
f 7/19/19 25/18/19 38/86/19 39/87/19
f 31/88/20 13/89/20 34/85/20 35/83/20
f 13/23/21 7/22/21 39/90/21 34/78/21
f 25/91/22 31/88/22 35/83/22 38/92/22
f 30/93/23 21/94/23 38/92/23 35/83/23
f 12/95/24 30/93/24 35/83/24 41/96/24
f 6/7/25 12/6/25 41/97/25 40/33/25
f 21/40/19 6/39/19 40/98/19 38/86/19
f 32/99/26 17/100/26 41/96/26 35/83/26
f 9/11/27 20/10/27 36/77/27 42/101/27
f 20/102/28 32/99/28 35/83/28 36/82/28
f 17/26/29 9/35/29 42/63/29 41/97/29
