# Blender v2.90.1 OBJ File: 'stonePyramid.blend'
# www.blender.org
mtllib stonePyramid.mtl
o Cube
v 0.005047 1.992729 -0.001081
v 1.971604 -1.970824 -1.986680
v 1.971604 -1.970824 1.979277
v -1.969365 -1.970824 -1.986680
v -1.969365 -1.970824 1.979277
v -1.969365 -1.970824 -1.381342
v -1.969365 -1.970824 1.384423
v 1.971604 -1.970824 1.384423
v 1.971604 -1.970824 -1.381342
v 0.569160 0.992947 -0.610564
v 1.971604 -1.379355 -1.986680
v -1.969365 -1.379355 1.979277
v -0.602832 0.992947 0.594586
v 0.569160 0.992947 0.594586
v 1.971604 -1.379355 1.979277
v -0.602832 0.992947 -0.610564
v -1.969365 -1.379355 -1.986680
v 0.569160 0.992947 -0.005226
v 1.971604 -1.379355 -1.381342
v 0.569160 0.992947 -0.000267
v 1.971604 -1.379355 1.384423
v -0.602832 0.992947 -0.000267
v -1.969365 -1.379355 1.384423
v -0.602832 0.992947 -0.005226
v -1.969365 -1.379355 -1.381342
v 1.387699 -1.970824 -1.986680
v -1.369750 -1.970824 -1.986680
v -1.369750 -1.970824 1.979277
v 1.387699 -1.970824 1.979277
v 1.387699 -1.970824 -1.381342
v -1.369750 -1.970824 -1.381342
v 1.387699 -1.970824 1.384423
v -1.369750 -1.970824 1.384423
v -1.369750 -1.379355 -1.986680
v 1.387699 -1.379355 -1.986680
v -0.003218 0.992947 -0.610564
v -0.014746 0.992947 -0.610564
v 1.387699 -1.379355 1.979277
v -1.369750 -1.379355 1.979277
v -0.014746 0.992947 0.594586
v -0.003218 0.992947 0.594586
v -1.374049 -1.379355 1.384423
v 1.386785 -1.379355 1.384423
v -0.011133 0.992947 -0.000267
v -0.014746 0.992203 -0.000267
v -0.003218 0.993019 -0.005226
v -1.369750 -1.379355 -1.387872
v 1.384491 -1.379355 -1.381342
v -0.014746 0.993349 -0.005226
vt 0.605562 0.452942
vt 0.605562 0.465558
vt 0.596500 0.452942
vt 0.646254 0.515381
vt 0.656956 0.515381
vt 0.646254 0.525234
vt 0.596338 0.514498
vt 0.605283 0.514498
vt 0.596338 0.526269
vt 0.605283 0.465356
vt 0.605597 0.525234
vt 0.596852 0.525234
vt 0.605597 0.515381
vt 0.596871 0.515381
vt 0.596934 0.465333
vt 0.605418 0.453824
vt 0.645838 0.453824
vt 0.605418 0.465410
vt 0.645838 0.514001
vt 0.656908 0.514001
vt 0.645838 0.525307
vt 0.645684 0.526269
vt 0.605283 0.526269
vt 0.645684 0.514498
vt 0.656667 0.514498
vt 0.596338 0.465356
vt 0.655932 0.466327
vt 0.655932 0.514560
vt 0.645095 0.466327
vt 0.597377 0.465410
vt 0.597377 0.453824
vt 0.597377 0.514001
vt 0.605418 0.514001
vt 0.596500 0.465558
vt 0.656781 0.465558
vt 0.656781 0.514426
vt 0.645379 0.465558
vt 0.645379 0.453414
vt 0.605230 0.514560
vt 0.605230 0.526197
vt 0.595943 0.514560
vt 0.655932 0.452844
vt 0.596871 0.453751
vt 0.605597 0.453751
vt 0.605597 0.465330
vt 0.596500 0.514426
vt 0.605562 0.514426
vt 0.596500 0.526685
vt 0.645379 0.514426
vt 0.595943 0.466327
vt 0.595943 0.452947
vt 0.605230 0.466327
vt 0.595943 0.526197
vt 0.605418 0.525307
vt 0.655932 0.526197
vt 0.645095 0.514560
vt 0.645095 0.526197
vt 0.645684 0.465356
vt 0.645684 0.452852
vt 0.605283 0.452852
vt 0.596338 0.452852
vt 0.656641 0.465356
vt 0.656781 0.453414
vt 0.641072 0.526685
vt 0.596500 0.465558
vt 0.596500 0.514426
vt 0.605562 0.465558
vt 0.605562 0.514426
vt 0.645838 0.465410
vt 0.656908 0.465410
vt 0.656908 0.453824
vt 0.646254 0.465407
vt 0.656956 0.465330
vt 0.646254 0.465330
vt 0.646222 0.465158
vt 0.646075 0.453751
vt 0.656956 0.525234
vt 0.646254 0.453751
vt 0.656956 0.453751
vt 0.629426 0.454033
vt 0.629426 0.454033
vt 0.629426 0.454033
vt 0.629426 0.454033
vt 0.629426 0.454033
vt 0.629426 0.454033
vt 0.603774 0.515801
vt 0.603774 0.515801
vt 0.603774 0.515801
vt 0.629426 0.454033
vt 0.629426 0.454033
vt 0.629426 0.454033
vt 0.629426 0.454033
vt 0.629426 0.454033
vt 0.603774 0.515801
vt 0.603774 0.515801
vt 0.603774 0.515801
vt 0.629426 0.454033
vt 0.629426 0.454033
vt 0.603774 0.515801
vt 0.603774 0.515801
vt 0.603774 0.515801
vt 0.629426 0.454033
vt 0.629426 0.454033
vt 0.629426 0.454033
vt 0.629426 0.454033
vt 0.629426 0.454033
vt 0.603774 0.515801
vt 0.603774 0.515801
vt 0.601919 0.492270
vt 0.601919 0.492270
vt 0.601919 0.492270
vt 0.629426 0.454033
vt 0.629426 0.454033
vt 0.629426 0.454033
vt 0.601919 0.492270
vt 0.603774 0.515801
vt 0.629426 0.454033
vt 0.629426 0.454033
vt 0.629426 0.454033
vt 0.603774 0.515801
vt 0.603774 0.515801
vt 0.603774 0.515801
vt 0.603774 0.515801
vt 0.603774 0.515801
vt 0.629426 0.454033
vt 0.629426 0.454033
vt 0.629426 0.454033
vt 0.629426 0.454033
vt 0.629426 0.454033
vt 0.629426 0.454033
vt 0.603774 0.515801
vt 0.603774 0.515801
vt 0.629426 0.454033
vt 0.629426 0.454033
vt 0.629426 0.454033
vt 0.629426 0.454033
vt 0.629426 0.454033
vt 0.603774 0.515801
vt 0.603774 0.515801
vt 0.603774 0.515801
vt 0.629426 0.454033
vt 0.603774 0.515801
vt 0.603774 0.515801
vt 0.603774 0.515801
vt 0.603774 0.515801
vt 0.629426 0.454033
vt 0.629426 0.454033
vt 0.629426 0.454033
vt 0.603774 0.515801
vn 0.0000 0.0000 1.0000
vn 0.0000 -1.0000 0.0000
vn 1.0000 0.0000 0.0000
vn -1.0000 0.0000 0.0000
vn -0.8545 0.5195 0.0000
vn 0.8608 0.5089 0.0000
vn 0.8709 0.4914 0.0000
vn 0.0000 0.5018 -0.8650
vn -0.8665 0.4991 0.0000
vn 0.0000 0.5041 0.8636
vn 0.0000 0.0000 -1.0000
vn 0.0000 0.5205 -0.8538
vn 0.0000 0.5118 0.8591
vn 0.9999 0.0073 -0.0072
vn 0.0000 1.0000 -0.0000
vn 0.0000 -0.5041 -0.8636
vn 0.8649 -0.5019 -0.0063
vn 0.0000 -0.0008 -1.0000
vn 0.8641 -0.5032 -0.0115
vn -0.9998 0.0162 0.0133
vn -0.8612 -0.5083 0.0013
vn -0.9998 0.0198 -0.0000
vn -0.0000 0.0008 1.0000
vn 0.0006 -0.5039 -0.8637
vn -0.8611 -0.5085 0.0006
vn 1.0000 -0.0083 0.0000
vn 0.0000 -0.0041 1.0000
vn -0.0001 0.5018 -0.8650
vn 0.8665 -0.4992 0.0001
vn 0.0109 0.0110 0.9999
vn 0.8665 -0.4991 0.0000
vn -0.0094 0.5075 -0.8616
vn -1.0000 -0.0073 -0.0016
vn -1.0000 -0.0015 0.0000
vn -1.0000 -0.0054 0.0008
vn -1.0000 -0.0054 -0.0053
vn -0.8620 -0.5069 -0.0046
vn 0.0000 -0.5018 0.8650
vn 0.0024 -0.0110 -0.9999
vn -0.8613 -0.5081 0.0003
vn -0.0003 -0.5019 0.8650
usemtl Material
s off
f 28/1/1 39/2/1 5/3/1
f 32/4/2 8/5/2 29/6/2
f 8/7/3 21/8/3 3/9/3
f 19/10/3 21/8/3 8/7/3
f 28/11/2 5/12/2 33/13/2
f 7/14/2 6/15/2 33/13/2
f 6/16/4 7/17/4 25/18/4
f 22/19/5 13/20/5 1/21/5
f 14/22/6 15/23/6 20/24/6
f 20/24/7 1/25/7 14/22/7
f 8/7/3 9/26/3 19/10/3
f 10/27/8 11/28/8 37/29/8
f 15/23/3 3/9/3 21/8/3
f 20/24/6 15/23/6 21/8/6
f 17/30/4 4/31/4 25/18/4
f 16/32/9 17/30/9 24/33/9
f 12/34/1 5/3/1 39/2/1
f 15/35/10 14/36/10 38/37/10
f 28/1/1 29/38/1 38/37/1
f 38/37/1 39/2/1 28/1/1
f 34/39/11 27/40/11 17/41/11
f 10/27/12 37/29/12 1/42/12
f 33/13/2 32/4/2 29/6/2
f 4/43/2 27/44/2 31/45/2
f 28/11/2 33/13/2 29/6/2
f 7/14/2 33/13/2 5/12/2
f 6/15/2 31/45/2 33/13/2
f 13/46/13 41/47/13 1/48/13
f 40/49/10 38/37/10 14/36/10
f 16/50/12 1/51/12 36/52/12
f 36/52/8 34/39/8 16/50/8
f 16/50/8 34/39/8 17/41/8
f 27/40/11 4/53/11 17/41/11
f 24/33/5 1/54/5 16/32/5
f 17/30/9 25/18/9 24/33/9
f 6/16/4 25/18/4 4/31/4
f 6/15/2 4/43/2 31/45/2
f 11/28/11 2/55/11 35/56/11
f 26/57/11 35/56/11 2/55/11
f 27/40/11 35/56/11 26/57/11
f 27/40/11 34/39/11 35/56/11
f 11/28/8 35/56/8 37/29/8
f 18/58/6 19/10/6 10/59/6
f 10/59/6 19/10/6 11/60/6
f 19/10/3 9/26/3 11/60/3
f 11/60/3 9/26/3 2/61/3
f 18/58/7 10/59/7 1/62/7
f 38/37/1 29/38/1 15/35/1
f 3/63/1 15/35/1 29/38/1
f 40/49/13 14/36/13 1/64/13
f 13/65/10 12/66/10 41/67/10
f 12/66/10 39/68/10 41/67/10
f 7/17/4 23/69/4 25/18/4
f 22/19/9 23/69/9 13/20/9
f 13/20/9 23/69/9 12/70/9
f 23/69/4 7/17/4 12/70/4
f 5/71/4 12/70/4 7/17/4
f 30/72/2 8/5/2 32/4/2
f 9/73/2 8/5/2 30/74/2
f 30/75/2 31/45/2 27/44/2
f 27/44/2 26/76/2 30/75/2
f 29/6/2 8/5/2 3/77/2
f 30/72/2 26/78/2 9/73/2
f 2/79/2 9/73/2 26/78/2
f 33/80/3 39/81/3 28/82/3
f 23/83/11 33/80/11 7/84/11
f 23/83/11 42/85/11 33/80/11
f 33/80/14 42/85/14 39/81/14
f 38/86/15 42/87/15 39/88/15
f 38/89/2 21/90/2 15/91/2
f 21/90/1 32/92/1 8/93/1
f 43/94/15 42/87/15 38/86/15
f 42/87/11 43/94/11 32/95/11
f 33/96/11 42/87/11 32/95/11
f 38/89/2 43/97/2 21/90/2
f 32/92/1 21/90/1 43/97/1
f 39/81/15 42/85/15 23/83/15
f 12/98/15 39/81/15 23/83/15
f 23/99/16 22/100/16 42/87/16
f 42/87/17 41/101/17 39/88/17
f 41/102/15 22/103/15 13/104/15
f 1/105/18 44/106/18 22/103/18
f 42/87/16 22/100/16 44/107/16
f 42/87/19 44/107/19 41/101/19
f 1/105/20 44/106/20 41/102/20
f 40/108/21 43/94/21 38/86/21
f 43/109/16 20/110/16 21/111/16
f 1/105/22 45/112/22 40/113/22
f 1/105/23 45/112/23 20/114/23
f 43/109/24 45/115/24 20/110/24
f 43/94/25 40/108/25 45/116/25
f 1/105/26 46/117/26 36/118/26
f 46/117/27 1/105/27 24/119/27
f 46/120/28 25/121/28 24/122/28
f 36/123/29 46/120/29 34/124/29
f 31/125/1 25/126/1 6/127/1
f 31/125/4 34/128/4 27/129/4
f 31/125/30 47/130/30 25/126/30
f 31/125/4 47/130/4 34/128/4
f 46/120/31 47/131/31 34/124/31
f 46/120/32 47/131/32 25/121/32
f 42/87/15 25/121/15 23/99/15
f 47/131/2 42/87/2 25/121/2
f 42/87/33 47/131/33 33/96/33
f 47/131/4 31/132/4 33/96/4
f 35/133/3 30/134/3 26/135/3
f 19/136/1 30/134/1 9/137/1
f 43/94/34 30/138/34 32/95/34
f 19/139/15 43/94/15 21/140/15
f 30/134/1 19/136/1 48/141/1
f 43/94/15 19/139/15 48/142/15
f 43/94/35 48/142/35 30/138/35
f 48/141/36 35/133/36 30/134/36
f 37/143/37 35/144/37 48/142/37
f 18/145/38 48/142/38 19/139/38
f 47/131/15 35/144/15 34/124/15
f 47/131/15 48/142/15 35/144/15
f 47/131/39 48/142/39 31/132/39
f 31/132/11 48/142/11 30/138/11
f 18/146/27 1/105/27 49/147/27
f 1/105/22 37/148/22 49/147/22
f 48/142/40 49/149/40 37/143/40
f 48/142/41 18/145/41 49/149/41
