# Blender v2.90.1 OBJ File: 'tnt.blend'
# www.blender.org
mtllib tnt.mtl
o Cube
v 1.979106 1.979106 -1.979106
v 1.979106 -1.979106 -1.979106
v 1.979106 1.979106 1.979106
v 1.979106 -1.979106 1.979106
v -1.979106 1.979106 -1.979106
v -1.979106 -1.979106 -1.979106
v -1.979106 1.979106 1.979106
v -1.979106 -1.979106 1.979106
vt 0.257553 0.760698
vt 0.143301 0.760785
vt 0.143197 0.622504
vt 0.258915 0.623003
vt 0.255126 0.621904
vt 0.255126 0.760301
vt 0.144811 0.760301
vt 0.144811 0.621904
vt 0.257520 0.623213
vt 0.257520 0.757883
vt 0.143329 0.757883
vt 0.143329 0.623213
vt 0.144531 0.621497
vt 0.257324 0.621497
vt 0.257324 0.759391
vt 0.144531 0.759391
vt 0.256034 0.620663
vt 0.256034 0.759576
vt 0.146150 0.759576
vt 0.146150 0.620663
vt 0.257520 0.619788
vt 0.257520 0.759501
vt 0.145267 0.759501
vt 0.145267 0.619788
vn 0.0000 1.0000 0.0000
vn 0.0000 0.0000 1.0000
vn -1.0000 0.0000 0.0000
vn 0.0000 -1.0000 0.0000
vn 1.0000 0.0000 0.0000
vn 0.0000 0.0000 -1.0000
usemtl Material
s off
f 1/1/1 5/2/1 7/3/1 3/4/1
f 4/5/2 3/6/2 7/7/2 8/8/2
f 8/9/3 7/10/3 5/11/3 6/12/3
f 6/13/4 2/14/4 4/15/4 8/16/4
f 2/17/5 1/18/5 3/19/5 4/20/5
f 6/21/6 5/22/6 1/23/6 2/24/6
