# Blender v2.90.1 OBJ File: 'woodHorizontalPlane.blend'
# www.blender.org
mtllib woodHorizontalPlane.mtl
o Cube_Cube.001
v -0.496318 -0.504699 4.000000
v -0.496318 0.504699 4.000000
v -0.496318 -0.504699 -4.000000
v -0.496318 0.504699 -4.000000
v 0.496318 -0.504699 4.000000
v 0.496318 0.504699 4.000000
v 0.496318 -0.504699 -4.000000
v 0.496318 0.504699 -4.000000
vt 0.809901 0.362390
vt 0.648072 0.381633
vt 0.648072 0.362390
vt 0.648454 0.400817
vt 0.634421 0.418465
vt 0.634420 0.400817
vt 0.809901 0.401946
vt 0.648072 0.417705
vt 0.648072 0.401946
vt 0.823870 0.401479
vt 0.810296 0.419007
vt 0.810296 0.401479
vt 0.810210 0.382361
vt 0.647490 0.398120
vt 0.647490 0.382361
vt 0.809875 0.420289
vt 0.647763 0.436049
vt 0.647763 0.420289
vt 0.809901 0.363095
vt 0.809901 0.382515
vt 0.648072 0.382515
vt 0.648454 0.418465
vt 0.809901 0.401241
vt 0.809901 0.417000
vt 0.648072 0.417000
vt 0.823927 0.401126
vt 0.823927 0.418655
vt 0.810353 0.418655
vt 0.810573 0.383250
vt 0.810573 0.399009
vt 0.647852 0.399009
vt 0.810163 0.420289
vt 0.810163 0.436049
vt 0.648051 0.436049
vn -1.0000 0.0000 0.0000
vn 0.0000 0.0000 -1.0000
vn 1.0000 0.0000 0.0000
vn 0.0000 0.0000 1.0000
vn 0.0000 -1.0000 0.0000
vn 0.0000 1.0000 0.0000
usemtl None
s off
f 2/1/1 3/2/1 1/3/1
f 4/4/2 7/5/2 3/6/2
f 8/7/3 5/8/3 7/9/3
f 6/10/4 1/11/4 5/12/4
f 7/13/5 1/14/5 3/15/5
f 4/16/6 6/17/6 8/18/6
f 2/19/1 4/20/1 3/21/1
f 4/4/2 8/22/2 7/5/2
f 8/23/3 6/24/3 5/25/3
f 6/26/4 2/27/4 1/28/4
f 7/29/5 5/30/5 1/31/5
f 4/32/6 2/33/6 6/34/6
