# Blender v2.90.1 OBJ File: 'woodHorizontalPlane.blend'
# www.blender.org
mtllib woodHorizontalPlane.mtl
o Cube
v -3.991987 -0.505302 -0.488113
v -3.991987 0.492703 -0.488113
v -3.991987 -0.505302 0.488113
v -3.991987 0.492703 0.488113
v 3.985657 -0.505303 -0.488113
v 3.985657 0.492703 -0.488113
v 3.985657 -0.505303 0.488113
v 3.985657 0.492703 0.488113
vt 0.482625 0.320450
vt 0.482625 0.333777
vt 0.337549 0.334510
vt 0.337549 0.321183
vt 0.337549 0.334589
vt 0.482417 0.320450
vt 0.482416 0.333856
vt 0.482666 0.333856
vt 0.482666 0.320450
vt 0.337590 0.321183
vt 0.337590 0.334589
vt 0.482625 0.320529
vt 0.482625 0.333856
vt 0.337549 0.321262
vn -0.0000 -1.0000 0.0000
vn -0.0000 0.0000 1.0000
vn 1.0000 0.0000 0.0000
vn 0.0000 1.0000 0.0000
vn -1.0000 0.0000 0.0000
vn -0.0000 0.0000 -1.0000
usemtl Material
s off
f 1/1/1 5/2/1 7/3/1 3/4/1
f 4/5/2 3/4/2 7/6/2 8/7/2
f 8/8/3 7/9/3 5/10/3 6/11/3
f 6/12/4 2/13/4 4/5/4 8/14/4
f 2/13/5 1/1/5 3/4/5 4/5/5
f 6/11/6 5/10/6 1/1/6 2/13/6
