# Blender v2.90.1 OBJ File: 'glassVerticalPlane.blend'
# www.blender.org
o glassVerticalPlane
v -0.481292 2.000000 -0.497738
v -0.481292 -2.000000 0.497738
v -0.481292 -2.000000 -0.497738
v -0.481292 2.000000 0.497738
v 0.481292 -2.000000 0.497738
v 0.481292 2.000000 0.497738
v 0.481292 -2.000000 -0.497738
v 0.481292 2.000000 -0.497738
vt 0.613424 0.361478
vt 0.450372 0.380852
vt 0.450372 0.361478
vt 0.613424 0.380853
vt 0.450372 0.399612
vt 0.613424 0.399612
vt 0.450372 0.416871
vt 0.613424 0.416871
vt 0.450372 0.437040
vt 0.437212 0.416871
vt 0.437212 0.399612
vt 0.626306 0.399612
vt 0.613424 0.437040
vt 0.626306 0.416871
vn 1.0000 0.0000 0.0000
vn 0.0000 0.0000 -1.0000
vn -1.0000 0.0000 0.0000
vn 0.0000 -0.0000 1.0000
vn 0.0000 1.0000 0.0000
vn 0.0000 -1.0000 -0.0000
s 1
f 1/1/1 2/2/1 3/3/1
f 4/4/2 5/5/2 2/2/2
f 6/6/3 7/7/3 5/5/3
f 8/8/4 3/9/4 7/7/4
f 5/5/5 3/10/5 2/11/5
f 4/12/6 8/8/6 6/6/6
f 1/1/1 4/4/1 2/2/1
f 4/4/2 6/6/2 5/5/2
f 6/6/3 8/8/3 7/7/3
f 8/8/4 1/13/4 3/9/4
f 5/5/5 7/7/5 3/10/5
f 4/12/6 1/14/6 8/8/6
