# Blender v2.90.1 OBJ File: 'woodBox.blend'
# www.blender.org
mtllib woodBox.mtl
o Cube
v 1.975699 1.977605 -1.994479
v 1.975699 -1.977443 -1.994479
v 1.975699 1.977605 1.985646
v 1.975699 -1.977443 1.985646
v -1.979349 1.977605 -1.994479
v -1.979349 -1.977443 -1.994479
v -1.979349 1.977605 1.985646
v -1.979349 -1.977443 1.985646
v -1.979349 -1.977443 -1.386979
v -1.979349 -1.977443 1.388667
v 1.975699 1.977605 -1.386979
v 1.975699 1.977605 1.388667
v -1.979349 1.977605 1.388667
v -1.979349 1.977605 -1.386979
v 1.975699 -1.977443 1.388667
v 1.975699 -1.977443 -1.386979
v 1.975699 1.383388 -1.994479
v 1.975699 -1.383862 -1.994479
v -1.979349 -1.383862 1.985646
v -1.979349 1.383388 1.985646
v 1.975699 1.383388 1.985646
v 1.975699 -1.383862 1.985646
v -1.979349 1.383388 -1.994479
v -1.979349 -1.383862 -1.994479
v 1.975699 1.383388 -1.386979
v 1.975699 -1.383862 -1.386979
v 1.975699 1.383388 1.388667
v 1.975699 -1.383862 1.388667
v -1.979349 1.383388 1.388667
v -1.979349 -1.383862 1.388667
v -1.979349 1.383388 -1.386979
v -1.979349 -1.383862 -1.386979
v 1.389708 -1.977443 -1.994479
v -1.377592 -1.977443 -1.994479
v 1.389708 1.977605 1.985646
v -1.377592 1.977605 1.985646
v -1.377592 -1.977443 1.985646
v 1.389708 -1.977443 1.985646
v -1.377592 1.977605 -1.994479
v 1.389708 1.977605 -1.994479
v 1.389708 -1.977443 -1.386979
v -1.377592 -1.977443 -1.386979
v 1.389708 -1.977443 1.388667
v -1.377592 -1.977443 1.388667
v -1.377592 1.977605 -1.386979
v 1.389708 1.977605 -1.386979
v -1.377592 1.977605 1.388667
v 1.389708 1.977605 1.388667
v -1.377592 -1.383862 -1.994479
v 1.389708 -1.383862 -1.994479
v -1.377592 1.383388 -1.994479
v 1.389708 1.383388 -1.994479
v 1.389708 -1.383862 1.985646
v -1.377592 -1.383862 1.985646
v 1.389708 1.383388 1.985646
v -1.377592 1.383388 1.985646
v -1.381906 -1.383862 1.388667
v 1.388791 -1.383862 1.388667
v -1.385536 1.383388 1.388667
v 1.389708 1.382641 1.388667
v -1.377592 1.383460 -1.386979
v -1.377592 -1.383862 -1.393532
v 1.386489 -1.383862 -1.386979
v 1.389708 1.383792 -1.386979
vt 0.346801 0.356035
vt 0.346801 0.380450
vt 0.285238 0.356051
vt 0.285238 0.356051
vt 0.285238 0.380490
vt 0.267703 0.356271
vt 0.267703 0.472606
vt 0.267703 0.451459
vt 0.285238 0.472606
vt 0.346801 0.451460
vt 0.364980 0.451459
vt 0.346801 0.472606
vt 0.267703 0.451459
vt 0.285238 0.451459
vt 0.267703 0.472606
vt 0.346801 0.356035
vt 0.346801 0.380450
vt 0.285238 0.356051
vt 0.364980 0.472606
vt 0.346801 0.472606
vt 0.364980 0.451459
vt 0.285238 0.380490
vt 0.285238 0.472606
vt 0.267703 0.472606
vt 0.285238 0.451459
vt 0.267703 0.451459
vt 0.267703 0.380350
vt 0.364980 0.451459
vt 0.364980 0.472606
vt 0.346801 0.472606
vt 0.285238 0.356051
vt 0.346801 0.356035
vt 0.285238 0.380490
vt 0.285238 0.472606
vt 0.285238 0.451459
vt 0.267703 0.451459
vt 0.267703 0.380350
vt 0.346801 0.451460
vt 0.285238 0.451459
vt 0.285238 0.472606
vt 0.346801 0.451460
vt 0.267703 0.380350
vt 0.364980 0.356035
vt 0.364980 0.380490
vt 0.364980 0.451459
vt 0.267703 0.380350
vt 0.267703 0.356271
vt 0.267703 0.380350
vt 0.364980 0.380490
vt 0.364980 0.451459
vt 0.346801 0.380450
vt 0.346801 0.356035
vt 0.267703 0.472606
vt 0.285238 0.451459
vt 0.285238 0.472606
vt 0.285238 0.451459
vt 0.285238 0.472606
vt 0.267703 0.451459
vt 0.364980 0.380490
vt 0.364980 0.356035
vt 0.364980 0.451459
vt 0.346801 0.472606
vt 0.346801 0.451460
vt 0.285238 0.356051
vt 0.285238 0.380490
vt 0.285238 0.380490
vt 0.267703 0.451459
vt 0.346801 0.451460
vt 0.346801 0.380450
vt 0.285238 0.380490
vt 0.267703 0.356271
vt 0.267703 0.380350
vt 0.267703 0.472606
vt 0.285238 0.380490
vt 0.285238 0.356051
vt 0.267703 0.380350
vt 0.267703 0.356271
vt 0.285238 0.356051
vt 0.364980 0.472606
vt 0.364980 0.472606
vt 0.346801 0.451460
vt 0.346801 0.472606
vt 0.346801 0.380450
vt 0.346801 0.356035
vt 0.285238 0.356051
vt 0.364980 0.380490
vt 0.267703 0.356271
vt 0.364980 0.356035
vt 0.346801 0.472606
vt 0.267703 0.380350
vt 0.267703 0.451459
vt 0.285238 0.380490
vt 0.285238 0.451459
vt 0.346801 0.380450
vt 0.364980 0.380490
vt 0.364980 0.356035
vt 0.346801 0.380450
vt 0.364980 0.380490
vt 0.346801 0.356035
vt 0.364980 0.472606
vt 0.364980 0.356035
vt 0.288800 0.449794
vt 0.288800 0.449794
vt 0.288800 0.449794
vt 0.288800 0.449794
vt 0.288800 0.449794
vt 0.288800 0.449794
vt 0.288800 0.449794
vt 0.288800 0.449794
vt 0.288800 0.449794
vt 0.288800 0.449794
vt 0.288800 0.449794
vt 0.288800 0.449794
vt 0.288800 0.449794
vt 0.288800 0.449794
vt 0.288800 0.449794
vt 0.288800 0.449794
vt 0.288800 0.449794
vt 0.288800 0.449794
vt 0.288800 0.449794
vt 0.288800 0.449794
vt 0.288800 0.449794
vt 0.288800 0.449794
vt 0.288800 0.449794
vt 0.288800 0.449794
vt 0.288800 0.449794
vt 0.288800 0.449794
vt 0.288800 0.449794
vt 0.288800 0.449794
vt 0.288800 0.449794
vt 0.288800 0.449794
vt 0.288800 0.449794
vt 0.288800 0.449794
vt 0.288800 0.449794
vt 0.288800 0.449794
vt 0.288800 0.449794
vt 0.288800 0.449794
vt 0.288800 0.449794
vt 0.288800 0.449794
vt 0.288800 0.449794
vt 0.288800 0.449794
vt 0.288800 0.449794
vt 0.288800 0.449794
vt 0.288800 0.449794
vt 0.288800 0.449794
vt 0.288800 0.449794
vt 0.288800 0.449794
vt 0.288800 0.449794
vt 0.288800 0.449794
vt 0.288800 0.449794
vt 0.288800 0.449794
vn 0.0000 1.0000 0.0000
vn 0.0000 0.0000 1.0000
vn -1.0000 0.0000 0.0000
vn 0.0000 -1.0000 0.0000
vn 1.0000 0.0000 0.0000
vn 0.0000 0.0000 -1.0000
vn 0.9999 0.0073 -0.0072
vn 1.0000 0.0000 -0.0072
vn 0.9999 0.0013 -0.0133
vn -0.9998 0.0134 0.0133
vn -1.0000 0.0000 0.0015
vn -1.0000 0.0003 -0.0000
vn 0.0000 -1.0000 0.0013
vn -0.0003 -1.0000 0.0000
vn -0.0001 1.0000 0.0000
vn 0.9999 -0.0134 0.0000
vn -1.0000 0.0000 -0.0029
vn 0.0109 0.0110 0.9999
vn -0.0109 0.0024 -0.9999
vn -1.0000 -0.0073 -0.0016
vn -1.0000 -0.0015 0.0000
vn -1.0000 -0.0054 0.0008
vn -1.0000 -0.0054 -0.0053
vn -1.0000 0.0000 -0.0053
vn 0.0024 -0.0110 -0.9999
vn -1.0000 0.0012 -0.0000
vn -0.0007 -1.0000 -0.0004
vn 0.0013 -1.0000 0.0000
vn 0.0000 -1.0000 0.0007
vn 0.0001 -1.0000 0.0001
usemtl Material
s off
f 35/1/1 48/2/1 36/3/1
f 37/4/2 54/5/2 8/6/2
f 5/7/3 23/8/3 14/9/3
f 43/10/4 15/11/4 38/12/4
f 15/13/5 28/14/5 4/15/5
f 40/16/6 52/17/6 39/18/6
f 3/19/5 21/20/5 12/21/5
f 26/22/5 28/14/5 15/13/5
f 37/23/4 8/24/4 44/25/4
f 10/26/4 9/27/4 44/25/4
f 20/28/3 7/29/3 13/30/3
f 9/31/3 10/32/3 32/33/3
f 39/34/1 5/7/1 45/35/1
f 14/36/1 13/37/1 45/35/1
f 14/9/3 29/38/3 13/30/3
f 29/38/3 20/28/3 13/30/3
f 29/38/3 14/9/3 31/39/3
f 21/20/5 22/40/5 27/41/5
f 27/41/5 12/21/5 21/20/5
f 15/13/5 16/42/5 26/22/5
f 1/43/6 52/17/6 40/16/6
f 17/44/6 18/45/6 52/17/6
f 22/40/5 4/15/5 28/14/5
f 27/41/5 22/40/5 28/14/5
f 24/46/3 6/47/3 32/33/3
f 23/8/3 24/46/3 31/39/3
f 19/48/2 8/6/2 54/5/2
f 22/49/2 21/50/2 53/51/2
f 37/4/2 38/52/2 53/51/2
f 7/53/2 56/54/2 36/55/2
f 53/51/2 54/5/2 37/4/2
f 49/56/6 34/57/6 24/58/6
f 17/44/6 52/17/6 1/43/6
f 12/59/1 35/1/1 3/60/1
f 11/61/1 40/62/1 46/63/1
f 12/59/1 11/61/1 48/2/1
f 44/25/4 43/10/4 38/12/4
f 6/47/4 34/64/4 42/65/4
f 37/23/4 44/25/4 38/12/4
f 51/66/6 39/18/6 52/17/6
f 10/26/4 44/25/4 8/24/4
f 9/27/4 42/65/4 44/25/4
f 20/67/2 56/54/2 7/53/2
f 55/68/2 53/51/2 21/50/2
f 48/2/1 35/1/1 12/59/1
f 47/69/4 48/70/4 36/3/4
f 39/18/6 51/66/6 5/71/6
f 23/72/6 5/71/6 51/66/6
f 51/66/6 49/56/6 23/72/6
f 23/72/6 49/56/6 24/58/6
f 34/57/6 6/73/6 24/58/6
f 5/7/1 14/36/1 45/35/1
f 31/39/3 14/9/3 23/8/3
f 24/46/3 32/33/3 31/39/3
f 9/31/3 32/33/3 6/47/3
f 9/27/4 6/47/4 42/65/4
f 47/74/1 45/35/1 13/37/1
f 7/75/1 36/76/1 47/74/1
f 13/37/1 7/77/1 47/78/1
f 11/61/1 46/63/1 48/2/1
f 40/62/1 11/61/1 1/79/1
f 40/62/1 39/34/1 46/63/1
f 45/35/1 46/63/1 39/34/1
f 18/45/6 2/80/6 50/81/6
f 33/82/6 50/81/6 2/80/6
f 34/57/6 50/81/6 33/82/6
f 34/57/6 49/56/6 50/81/6
f 18/45/6 50/81/6 52/17/6
f 25/83/5 26/22/5 17/84/5
f 17/84/5 26/22/5 18/85/5
f 12/21/5 27/41/5 11/86/5
f 25/83/5 11/86/5 27/41/5
f 26/22/5 16/42/5 18/85/5
f 18/85/5 16/42/5 2/87/5
f 25/83/5 17/84/5 11/86/5
f 11/86/5 17/84/5 1/43/5
f 53/51/2 38/52/2 22/49/2
f 4/88/2 22/49/2 38/52/2
f 55/68/2 21/50/2 35/89/2
f 21/50/2 3/19/2 35/89/2
f 20/90/2 19/91/2 56/92/2
f 19/91/2 54/93/2 56/92/2
f 36/55/2 56/54/2 35/89/2
f 55/68/2 35/89/2 56/54/2
f 10/32/3 30/94/3 32/33/3
f 29/38/3 30/94/3 20/28/3
f 20/28/3 30/94/3 19/95/3
f 30/94/3 10/32/3 19/95/3
f 8/96/3 19/95/3 10/32/3
f 41/97/4 15/11/4 43/10/4
f 16/98/4 15/11/4 41/97/4
f 41/97/4 42/65/4 34/64/4
f 34/64/4 33/99/4 41/97/4
f 38/12/4 15/11/4 4/100/4
f 41/97/4 33/99/4 16/98/4
f 2/101/4 16/98/4 33/99/4
f 44/102/5 54/103/5 37/104/5
f 30/105/6 44/102/6 10/106/6
f 30/105/6 57/107/6 44/102/6
f 44/102/7 57/107/7 54/103/7
f 53/108/1 57/107/1 54/103/1
f 53/108/4 28/109/4 22/110/4
f 28/109/2 43/111/2 15/112/2
f 58/113/1 57/107/1 53/108/1
f 57/107/6 58/113/6 43/111/6
f 44/102/6 57/107/6 43/111/6
f 53/108/4 58/113/4 28/109/4
f 43/111/2 28/109/2 58/113/2
f 54/103/1 57/107/1 30/105/1
f 19/114/1 54/103/1 30/105/1
f 30/105/6 29/115/6 57/107/6
f 57/107/8 56/116/8 54/103/8
f 56/116/1 29/115/1 20/117/1
f 47/118/6 29/115/6 13/119/6
f 47/118/3 56/116/3 36/120/3
f 47/118/6 59/121/6 29/115/6
f 57/107/6 29/115/6 59/121/6
f 57/107/9 59/121/9 56/116/9
f 47/118/10 59/121/10 56/116/10
f 48/122/2 27/123/2 12/124/2
f 48/122/3 55/125/3 35/126/3
f 55/125/11 58/113/11 53/108/11
f 58/113/6 27/123/6 28/109/6
f 48/122/3 60/127/3 55/125/3
f 48/122/2 60/127/2 27/123/2
f 58/113/6 60/127/6 27/123/6
f 58/113/12 55/125/12 60/127/12
f 47/118/2 60/127/2 48/122/2
f 56/116/13 60/127/13 55/125/13
f 59/121/14 60/127/14 56/116/14
f 47/118/6 60/127/6 59/121/6
f 39/128/5 61/129/5 51/130/5
f 61/129/5 39/128/5 45/131/5
f 61/129/2 45/131/2 14/132/2
f 61/129/2 14/132/2 31/133/2
f 59/121/15 61/129/15 31/133/15
f 59/121/4 29/115/4 31/133/4
f 59/121/16 45/131/16 47/118/16
f 59/121/17 45/131/17 61/129/17
f 61/129/6 32/134/6 31/133/6
f 51/130/5 61/129/5 49/135/5
f 42/136/2 32/134/2 9/137/2
f 42/136/3 49/135/3 34/138/3
f 42/136/18 62/139/18 32/134/18
f 42/136/3 62/139/3 49/135/3
f 61/129/5 62/139/5 49/135/5
f 61/129/19 62/139/19 32/134/19
f 57/107/1 32/134/1 30/105/1
f 62/139/4 57/107/4 32/134/4
f 57/107/20 62/139/20 44/102/20
f 62/139/3 42/136/3 44/102/3
f 50/140/5 41/141/5 33/142/5
f 26/143/2 41/141/2 16/144/2
f 58/113/21 41/141/21 43/111/21
f 26/143/1 58/113/1 28/109/1
f 41/141/2 26/143/2 63/145/2
f 58/113/1 26/143/1 63/145/1
f 58/113/22 63/145/22 41/141/22
f 63/145/23 50/140/23 41/141/23
f 52/146/24 50/140/24 63/145/24
f 25/147/2 63/145/2 26/143/2
f 62/139/1 50/140/1 49/135/1
f 62/139/1 63/145/1 50/140/1
f 62/139/25 63/145/25 42/136/25
f 42/136/6 63/145/6 41/141/6
f 46/148/2 25/147/2 11/149/2
f 52/146/3 46/148/3 40/150/3
f 25/147/2 46/148/2 64/151/2
f 46/148/3 52/146/3 64/151/3
f 63/145/26 64/151/26 52/146/26
f 63/145/2 25/147/2 64/151/2
f 64/151/3 48/122/3 46/148/3
f 48/122/3 64/151/3 60/127/3
f 25/147/27 60/127/27 64/151/27
f 60/127/28 25/147/28 27/123/28
f 64/151/29 51/130/29 52/146/29
f 64/151/30 61/129/30 51/130/30
f 46/148/2 61/129/2 64/151/2
f 45/131/2 61/129/2 46/148/2
