# Blender v2.90.1 OBJ File: 'woodHorizontalPlane.blend'
# www.blender.org
mtllib woodHorizontalPlane.mtl
o Cube
v -0.491278 -0.505302 3.988822
v -0.491278 0.492703 3.988822
v 0.484948 -0.505302 3.988822
v 0.484948 0.492703 3.988822
v -0.491278 -0.505303 -3.988822
v -0.491278 0.492703 -3.988822
v 0.484948 -0.505303 -3.988822
v 0.484948 0.492703 -3.988822
vt 0.483405 0.334627
vt 0.336706 0.320103
vt 0.483405 0.319370
vt 0.483405 0.334627
vt 0.336706 0.334627
vt 0.483405 0.319370
vt 0.336706 0.334627
vt 0.483405 0.334627
vt 0.336706 0.320103
vt 0.483405 0.319370
vt 0.336706 0.334627
vt 0.336706 0.320103
vn 0.0000 -1.0000 0.0000
vn 1.0000 0.0000 -0.0000
vn 0.0000 0.0000 -1.0000
vn 0.0000 1.0000 -0.0000
vn 0.0000 0.0000 1.0000
vn -1.0000 0.0000 0.0000
usemtl Material
s off
f 5/1/1 3/2/1 1/3/1
f 3/2/2 8/4/2 4/5/2
f 7/6/3 6/7/3 8/4/3
f 2/8/4 8/9/4 6/10/4
f 1/3/5 4/5/5 2/8/5
f 6/7/6 1/3/6 2/8/6
f 5/1/1 7/11/1 3/2/1
f 3/2/2 7/6/2 8/4/2
f 7/6/3 5/12/3 6/7/3
f 2/8/4 4/5/4 8/9/4
f 1/3/5 3/2/5 4/5/5
f 6/7/6 5/12/6 1/3/6
