# Blender v2.90.1 OBJ File: 'woodHorizontalPlane.blend'
# www.blender.org
mtllib woodHorizontalPlane.mtl
o Cube_Cube.002
v -0.496971 -0.501634 -4.003504
v -0.496971 -0.501635 4.003504
v -0.496971 0.501635 -4.003504
v -0.496971 0.501634 4.003504
v 0.496971 -0.501634 -4.003504
v 0.496971 -0.501635 4.003504
v 0.496971 0.501635 -4.003504
v 0.496971 0.501634 4.003504
vt 0.809424 0.361881
vt 0.646521 0.378909
vt 0.646521 0.361881
vt 0.809881 0.378909
vt 0.646978 0.400523
vt 0.646978 0.378909
vt 0.809881 0.400523
vt 0.646978 0.417551
vt 0.809424 0.417551
vt 0.646521 0.436695
vt 0.646521 0.417551
vt 0.647436 0.400523
vt 0.635152 0.417551
vt 0.635152 0.400523
vt 0.822529 0.400523
vt 0.810338 0.417551
vt 0.810338 0.400523
vt 0.810338 0.361881
vt 0.810338 0.378909
vt 0.647436 0.378909
vt 0.809424 0.378349
vt 0.809424 0.399963
vt 0.646521 0.399963
vt 0.647436 0.417551
vt 0.809424 0.418671
vt 0.809424 0.437815
vt 0.646521 0.437815
vt 0.646521 0.400523
vt 0.646158 0.417551
vt 0.634238 0.417551
vt 0.821615 0.401083
vt 0.821615 0.418111
vt 0.809424 0.418111
vn -1.0000 0.0000 0.0000
vn 0.0000 1.0000 0.0000
vn 1.0000 0.0000 0.0000
vn 0.0000 -1.0000 -0.0000
vn 0.0000 0.0000 -1.0000
vn 0.0000 0.0000 1.0000
usemtl None
s off
f 2/1/1 3/2/1 1/3/1
f 4/4/2 7/5/2 3/6/2
f 8/7/3 5/8/3 7/5/3
f 6/9/4 1/10/4 5/11/4
f 7/12/5 1/13/5 3/14/5
f 4/15/6 6/16/6 8/17/6
f 2/18/1 4/19/1 3/20/1
f 4/21/2 8/22/2 7/23/2
f 8/17/3 6/16/3 5/24/3
f 6/25/4 2/26/4 1/27/4
f 7/28/5 5/29/5 1/30/5
f 4/31/6 2/32/6 6/33/6
