# Blender v2.90.1 OBJ File: 'woodPiramid.blend'
# www.blender.org
mtllib woodPyramid.mtl
o Cube
v 0.001990 0.998346 -0.001837
v 0.998346 -0.998346 -1.007841
v 0.998346 -0.998346 1.001511
v -0.998346 -0.998346 -1.007841
v -0.998346 -0.998346 1.001511
v -0.998346 -0.998346 -0.701146
v -0.998346 -0.998346 0.700128
v 0.998346 -0.998346 0.700128
v 0.998346 -0.998346 -0.701146
v 0.287797 0.500388 -0.310632
v 0.998346 -0.698678 -1.007841
v -0.998346 -0.698678 1.001511
v -0.305992 0.500388 0.299957
v 0.287797 0.500388 0.299957
v 0.998346 -0.698678 1.001511
v -0.305992 0.500388 -0.310632
v -0.998346 -0.698678 -1.007841
v 0.287797 0.500388 -0.003937
v 0.998346 -0.698678 -0.701146
v 0.287797 0.500388 -0.001425
v 0.998346 -0.698678 0.700128
v -0.305992 0.500388 -0.001425
v -0.998346 -0.698678 0.700128
v -0.305992 0.500388 -0.003937
v -0.998346 -0.698678 -0.701146
v 0.702510 -0.998346 -1.007841
v -0.694551 -0.998346 -1.007841
v -0.694551 -0.998346 1.001511
v 0.702510 -0.998346 1.001511
v 0.702510 -0.998346 -0.701146
v -0.694551 -0.998346 -0.701146
v 0.702510 -0.998346 0.700128
v -0.694551 -0.998346 0.700128
v -0.694551 -0.698678 -1.007841
v 0.702510 -0.698678 -1.007841
v -0.002197 0.500388 -0.310632
v -0.008038 0.500388 -0.310632
v 0.702510 -0.698678 1.001511
v -0.694551 -0.698678 1.001511
v -0.008038 0.500388 0.299957
v -0.002197 0.500388 0.299957
v -0.696729 -0.698678 0.700128
v 0.702047 -0.698678 0.700128
v -0.006208 0.500388 -0.001425
v -0.008038 0.500011 -0.001425
v -0.002197 0.500424 -0.003937
v -0.694551 -0.698678 -0.704454
v 0.700885 -0.698678 -0.701146
v -0.008038 0.500592 -0.003937
vt 0.027793 0.503693
vt 0.027793 0.516309
vt 0.018731 0.503693
vt 0.068329 0.567627
vt 0.079031 0.567627
vt 0.068329 0.577480
vt 0.018569 0.566744
vt 0.027514 0.566744
vt 0.018569 0.578515
vt 0.027514 0.516107
vt 0.027828 0.577480
vt 0.019083 0.577480
vt 0.027828 0.567627
vt 0.019103 0.567627
vt 0.019165 0.516084
vt 0.027649 0.504575
vt 0.067914 0.504575
vt 0.027649 0.516161
vt 0.067914 0.566247
vt 0.078984 0.566247
vt 0.067914 0.577553
vt 0.067759 0.578515
vt 0.027514 0.578515
vt 0.067759 0.566744
vt 0.078743 0.566744
vt 0.018569 0.516107
vt 0.078007 0.517078
vt 0.078007 0.566807
vt 0.067171 0.517078
vt 0.019608 0.516161
vt 0.019608 0.504575
vt 0.019608 0.566247
vt 0.027649 0.566247
vt 0.018731 0.516309
vt 0.078857 0.516309
vt 0.078857 0.566672
vt 0.067454 0.516309
vt 0.067454 0.504165
vt 0.027461 0.566807
vt 0.027461 0.578443
vt 0.018174 0.566807
vt 0.078007 0.503595
vt 0.019103 0.504502
vt 0.027828 0.504502
vt 0.027828 0.516081
vt 0.018731 0.566672
vt 0.027793 0.566672
vt 0.018731 0.578931
vt 0.067454 0.566672
vt 0.018174 0.517078
vt 0.018174 0.503698
vt 0.027461 0.517078
vt 0.018174 0.578443
vt 0.027649 0.577553
vt 0.019103 0.516081
vt 0.078007 0.578443
vt 0.067171 0.566807
vt 0.067171 0.578443
vt 0.067759 0.516107
vt 0.067759 0.503603
vt 0.027514 0.503603
vt 0.018569 0.503603
vt 0.078716 0.516107
vt 0.078857 0.504165
vt 0.067454 0.578931
vt 0.018731 0.516309
vt 0.018731 0.566672
vt 0.027793 0.516309
vt 0.027793 0.566672
vt 0.067913 0.516161
vt 0.078984 0.516161
vt 0.078984 0.504575
vt 0.068329 0.516158
vt 0.079031 0.516081
vt 0.068329 0.516081
vt 0.068298 0.515909
vt 0.068151 0.504502
vt 0.079031 0.577480
vt 0.068329 0.504502
vt 0.079031 0.504502
vt 0.054098 0.504784
vt 0.054098 0.504784
vt 0.054098 0.504784
vt 0.054098 0.504784
vt 0.054098 0.504784
vt 0.054098 0.504784
vt 0.026005 0.568047
vt 0.026005 0.568047
vt 0.026005 0.568047
vt 0.054098 0.504784
vt 0.054098 0.504784
vt 0.054098 0.504784
vt 0.054098 0.504784
vt 0.054098 0.504784
vt 0.026005 0.568047
vt 0.026005 0.568047
vt 0.026005 0.568047
vt 0.054098 0.504784
vt 0.054098 0.504784
vt 0.026005 0.568047
vt 0.026005 0.568047
vt 0.026005 0.568047
vt 0.054098 0.504784
vt 0.054098 0.504784
vt 0.054098 0.504784
vt 0.054098 0.504784
vt 0.054098 0.504784
vt 0.026005 0.568047
vt 0.026005 0.568047
vt 0.024150 0.543655
vt 0.024150 0.543655
vt 0.024150 0.543655
vt 0.054098 0.504784
vt 0.054098 0.504784
vt 0.054098 0.504784
vt 0.024150 0.543655
vt 0.026005 0.568047
vt 0.054098 0.504784
vt 0.054098 0.504784
vt 0.054098 0.504784
vt 0.026005 0.568047
vt 0.026005 0.568047
vt 0.026005 0.568047
vt 0.026005 0.568047
vt 0.026005 0.568047
vt 0.054098 0.504784
vt 0.054098 0.504784
vt 0.054098 0.504784
vt 0.054098 0.504784
vt 0.054098 0.504784
vt 0.054098 0.504784
vt 0.026005 0.568047
vt 0.026005 0.568047
vt 0.054098 0.504784
vt 0.054098 0.504784
vt 0.054098 0.504784
vt 0.054098 0.504784
vt 0.054098 0.504784
vt 0.026005 0.568047
vt 0.026005 0.568047
vt 0.026005 0.568047
vt 0.054098 0.504784
vt 0.026005 0.568047
vt 0.026005 0.568047
vt 0.026005 0.568047
vt 0.026005 0.568047
vt 0.054098 0.504784
vt 0.054098 0.504784
vt 0.054098 0.504784
vt 0.026005 0.568047
vn 0.0000 0.0000 1.0000
vn 0.0000 -1.0000 0.0000
vn 1.0000 0.0000 0.0000
vn -1.0000 0.0000 0.0000
vn -0.8505 0.5260 0.0000
vn 0.8603 0.5098 0.0000
vn 0.8673 0.4978 0.0000
vn 0.0000 0.5027 -0.8645
vn -0.8660 0.5000 0.0000
vn 0.0000 0.5050 0.8631
vn 0.0000 0.0000 -1.0000
vn 0.0000 0.5270 -0.8499
vn 0.0000 0.5183 0.8552
vn 0.9999 0.0073 -0.0072
vn 0.0000 1.0000 -0.0000
vn 0.0000 -0.5050 -0.8631
vn 0.8644 -0.5028 -0.0062
vn 0.0000 -0.0008 -1.0000
vn 0.8636 -0.5041 -0.0115
vn -0.9998 0.0165 0.0133
vn -0.8606 -0.5092 0.0013
vn -0.9998 0.0201 -0.0000
vn -0.0000 0.0008 1.0000
vn 0.0006 -0.5048 -0.8632
vn -0.8605 -0.5094 0.0006
vn 1.0000 -0.0084 0.0000
vn 0.0000 -0.0042 1.0000
vn -0.0001 0.5027 -0.8645
vn 0.8660 -0.5001 0.0001
vn 0.0109 0.0110 0.9999
vn 0.8660 -0.5000 0.0000
vn -0.0094 0.5084 -0.8610
vn -1.0000 -0.0073 -0.0016
vn -1.0000 -0.0015 0.0000
vn -1.0000 -0.0054 0.0008
vn -1.0000 -0.0054 -0.0053
vn -0.8614 -0.5078 -0.0046
vn 0.0000 -0.5027 0.8645
vn 0.0024 -0.0110 -0.9999
vn -0.8608 -0.5090 0.0003
vn -0.0003 -0.5028 0.8644
usemtl Material
s off
f 28/1/1 39/2/1 5/3/1
f 32/4/2 8/5/2 29/6/2
f 8/7/3 21/8/3 3/9/3
f 19/10/3 21/8/3 8/7/3
f 28/11/2 5/12/2 33/13/2
f 7/14/2 6/15/2 33/13/2
f 6/16/4 7/17/4 25/18/4
f 22/19/5 13/20/5 1/21/5
f 14/22/6 15/23/6 20/24/6
f 20/24/7 1/25/7 14/22/7
f 8/7/3 9/26/3 19/10/3
f 10/27/8 11/28/8 37/29/8
f 15/23/3 3/9/3 21/8/3
f 20/24/6 15/23/6 21/8/6
f 17/30/4 4/31/4 25/18/4
f 16/32/9 17/30/9 24/33/9
f 12/34/1 5/3/1 39/2/1
f 15/35/10 14/36/10 38/37/10
f 28/1/1 29/38/1 38/37/1
f 38/37/1 39/2/1 28/1/1
f 34/39/11 27/40/11 17/41/11
f 10/27/12 37/29/12 1/42/12
f 33/13/2 32/4/2 29/6/2
f 4/43/2 27/44/2 31/45/2
f 28/11/2 33/13/2 29/6/2
f 7/14/2 33/13/2 5/12/2
f 6/15/2 31/45/2 33/13/2
f 13/46/13 41/47/13 1/48/13
f 40/49/10 38/37/10 14/36/10
f 16/50/12 1/51/12 36/52/12
f 36/52/8 34/39/8 16/50/8
f 16/50/8 34/39/8 17/41/8
f 27/40/11 4/53/11 17/41/11
f 24/33/5 1/54/5 16/32/5
f 17/30/9 25/18/9 24/33/9
f 6/16/4 25/18/4 4/31/4
f 6/55/2 4/43/2 31/45/2
f 11/28/11 2/56/11 35/57/11
f 26/58/11 35/57/11 2/56/11
f 27/40/11 35/57/11 26/58/11
f 27/40/11 34/39/11 35/57/11
f 11/28/8 35/57/8 37/29/8
f 18/59/6 19/10/6 10/60/6
f 10/60/6 19/10/6 11/61/6
f 19/10/3 9/26/3 11/61/3
f 11/61/3 9/26/3 2/62/3
f 18/59/7 10/60/7 1/63/7
f 38/37/1 29/38/1 15/35/1
f 3/64/1 15/35/1 29/38/1
f 40/49/13 14/36/13 1/65/13
f 13/66/10 12/67/10 41/68/10
f 12/67/10 39/69/10 41/68/10
f 7/17/4 23/70/4 25/18/4
f 22/19/9 23/70/9 13/20/9
f 13/20/9 23/70/9 12/71/9
f 23/70/4 7/17/4 12/71/4
f 5/72/4 12/71/4 7/17/4
f 30/73/2 8/5/2 32/4/2
f 9/74/2 8/5/2 30/75/2
f 30/76/2 31/45/2 27/44/2
f 27/44/2 26/77/2 30/76/2
f 29/6/2 8/5/2 3/78/2
f 30/73/2 26/79/2 9/74/2
f 2/80/2 9/74/2 26/79/2
f 33/81/3 39/82/3 28/83/3
f 23/84/11 33/81/11 7/85/11
f 23/84/11 42/86/11 33/81/11
f 33/81/14 42/86/14 39/82/14
f 38/87/15 42/88/15 39/89/15
f 38/90/2 21/91/2 15/92/2
f 21/91/1 32/93/1 8/94/1
f 43/95/15 42/88/15 38/87/15
f 42/88/11 43/95/11 32/96/11
f 33/97/11 42/88/11 32/96/11
f 38/90/2 43/98/2 21/91/2
f 32/93/1 21/91/1 43/98/1
f 39/82/15 42/86/15 23/84/15
f 12/99/15 39/82/15 23/84/15
f 23/100/16 22/101/16 42/88/16
f 42/88/17 41/102/17 39/89/17
f 41/103/15 22/104/15 13/105/15
f 1/106/18 44/107/18 22/104/18
f 42/88/16 22/101/16 44/108/16
f 42/88/19 44/108/19 41/102/19
f 1/106/20 44/107/20 41/103/20
f 40/109/21 43/95/21 38/87/21
f 43/110/16 20/111/16 21/112/16
f 1/106/22 45/113/22 40/114/22
f 1/106/23 45/113/23 20/115/23
f 43/110/24 45/116/24 20/111/24
f 43/95/25 40/109/25 45/117/25
f 1/106/26 46/118/26 36/119/26
f 46/118/27 1/106/27 24/120/27
f 46/121/28 25/122/28 24/123/28
f 36/124/29 46/121/29 34/125/29
f 31/126/1 25/127/1 6/128/1
f 31/126/4 34/129/4 27/130/4
f 31/126/30 47/131/30 25/127/30
f 31/126/4 47/131/4 34/129/4
f 46/121/31 47/132/31 34/125/31
f 46/121/32 47/132/32 25/122/32
f 42/88/15 25/122/15 23/100/15
f 47/132/2 42/88/2 25/122/2
f 42/88/33 47/132/33 33/97/33
f 47/132/4 31/133/4 33/97/4
f 35/134/3 30/135/3 26/136/3
f 19/137/1 30/135/1 9/138/1
f 43/95/34 30/139/34 32/96/34
f 19/140/15 43/95/15 21/141/15
f 30/135/1 19/137/1 48/142/1
f 43/95/15 19/140/15 48/143/15
f 43/95/35 48/143/35 30/139/35
f 48/142/36 35/134/36 30/135/36
f 37/144/37 35/145/37 48/143/37
f 18/146/38 48/143/38 19/140/38
f 47/132/15 35/145/15 34/125/15
f 47/132/15 48/143/15 35/145/15
f 47/132/39 48/143/39 31/133/39
f 31/133/11 48/143/11 30/139/11
f 18/147/27 1/106/27 49/148/27
f 1/106/22 37/149/22 49/148/22
f 48/143/40 49/150/40 37/144/40
f 48/143/41 18/146/41 49/150/41
