# Blender v2.90.1 OBJ File: 'woodVerticalPlane.blend'
# www.blender.org
mtllib woodVerticalPlane.mtl
o Cube_Cube.002
v -0.496971 1.986650 -0.501634
v -0.496971 -1.986650 -0.501635
v -0.496971 1.986650 0.501635
v -0.496971 -1.986650 0.501634
v 0.496971 1.986650 -0.501634
v 0.496971 -1.986650 -0.501635
v 0.496971 1.986650 0.501635
v 0.496971 -1.986650 0.501634
vt 0.811098 0.364528
vt 0.648195 0.377676
vt 0.648195 0.364528
vt 0.811555 0.377676
vt 0.648653 0.399290
vt 0.648653 0.377676
vt 0.811555 0.399290
vt 0.648653 0.416318
vt 0.811098 0.416318
vt 0.648195 0.435462
vt 0.648195 0.416318
vt 0.649110 0.399290
vt 0.636826 0.416318
vt 0.636826 0.399290
vt 0.824203 0.399290
vt 0.812012 0.416318
vt 0.812012 0.399290
vt 0.812012 0.364528
vt 0.812012 0.377676
vt 0.649110 0.377676
vt 0.811098 0.377116
vt 0.811098 0.398730
vt 0.648195 0.398730
vt 0.649110 0.416318
vt 0.811098 0.417438
vt 0.811098 0.436582
vt 0.648195 0.436582
vt 0.648195 0.399290
vt 0.647833 0.416318
vt 0.635912 0.416318
vt 0.823289 0.399850
vt 0.823289 0.416878
vt 0.811098 0.416878
vn -1.0000 0.0000 0.0000
vn 0.0000 -0.0000 1.0000
vn 1.0000 0.0000 0.0000
vn 0.0000 0.0000 -1.0000
vn 0.0000 1.0000 0.0000
vn 0.0000 -1.0000 0.0000
usemtl None
s off
f 2/1/1 3/2/1 1/3/1
f 4/4/2 7/5/2 3/6/2
f 8/7/3 5/8/3 7/5/3
f 6/9/4 1/10/4 5/11/4
f 7/12/5 1/13/5 3/14/5
f 4/15/6 6/16/6 8/17/6
f 2/18/1 4/19/1 3/20/1
f 4/21/2 8/22/2 7/23/2
f 8/17/3 6/16/3 5/24/3
f 6/25/4 2/26/4 1/27/4
f 7/28/5 5/29/5 1/30/5
f 4/31/6 2/32/6 6/33/6
